<?xml version="1.0" standalone="no"?>
<!DOCTYPE svg PUBLIC "-//W3C//DTD SVG 20010904//EN"
 "http://www.w3.org/TR/2001/REC-SVG-20010904/DTD/svg10.dtd">
<svg version="1.0" xmlns="http://www.w3.org/2000/svg"
 width="928.000000pt" height="928.000000pt" viewBox="0 0 928.000000 928.000000"
 preserveAspectRatio="xMidYMid meet">
<metadata>
Created by potrace 1.11, written by Peter Selinger 2001-2013
</metadata>
<g transform="translate(0.000000,928.000000) scale(0.100000,-0.100000)"
fill="#000000" stroke="none">
<path d="M4249 9258 c0 -7 -2 -24 -5 -38 -19 -111 -34 -202 -39 -239 -3 -23
-7 -46 -9 -50 -2 -3 -7 -33 -11 -66 -3 -32 -8 -62 -10 -65 -2 -3 -6 -30 -10
-60 -4 -30 -8 -57 -10 -60 -2 -3 -6 -27 -9 -55 -9 -64 -16 -112 -22 -139 -3
-11 -7 -37 -9 -56 -5 -35 -22 -134 -31 -180 -3 -14 -7 -44 -9 -66 -2 -23 -5
-48 -7 -55 -4 -18 -30 -39 -40 -33 -5 3 -8 0 -8 -5 0 -6 -3 -10 -7 -10 -5 1
-10 0 -13 -1 -3 -1 -12 -3 -20 -5 -52 -11 -356 -153 -488 -229 -35 -20 -66
-36 -67 -36 -2 0 -23 -13 -47 -28 -24 -16 -70 -46 -103 -68 -33 -21 -62 -41
-65 -44 -3 -3 -32 -23 -64 -45 -33 -22 -78 -55 -100 -73 -23 -18 -48 -39 -56
-45 -198 -156 -437 -398 -600 -607 -49 -63 -47 -61 -80 -105 -16 -22 -33 -44
-37 -50 -24 -31 -139 -213 -186 -295 -62 -108 -214 -421 -216 -445 -1 -3 -7
-20 -15 -39 -49 -116 -142 -427 -161 -535 -3 -19 -7 -37 -9 -40 -2 -3 -7 -24
-10 -46 -4 -22 -8 -47 -11 -55 -2 -8 -7 -37 -10 -64 -3 -27 -7 -59 -10 -70
-22 -102 -30 -258 -30 -568 0 -170 -3 -308 -8 -308 -7 0 -66 -38 -77 -50 -10
-11 -242 -175 -261 -185 -10 -5 -19 -13 -19 -17 0 -5 -5 -8 -11 -8 -6 0 -17
-6 -24 -12 -26 -23 -39 -34 -100 -76 -199 -138 -231 -161 -250 -179 -8 -7 -18
-13 -24 -13 -6 0 -11 -4 -11 -10 0 -5 -4 -10 -9 -10 -16 0 -156 -109 -151
-117 3 -4 14 -9 25 -10 11 -2 50 -8 87 -14 37 -6 78 -12 90 -14 13 -1 37 -5
53 -8 28 -5 89 -15 145 -24 14 -2 36 -6 50 -8 14 -2 45 -7 70 -10 25 -3 52 -8
61 -11 9 -2 34 -7 55 -10 69 -10 87 -13 209 -33 66 -11 129 -22 140 -24 11 -3
45 -8 75 -13 30 -4 58 -9 63 -10 4 -1 13 -2 20 -3 7 0 21 -25 31 -54 10 -28
24 -65 31 -82 7 -16 23 -55 36 -85 38 -88 195 -396 209 -410 3 -3 24 -37 47
-76 227 -385 666 -840 1063 -1100 41 -27 77 -52 80 -55 3 -3 12 -8 20 -12 14
-7 25 -13 80 -48 89 -57 435 -229 461 -229 5 0 17 -4 27 -9 36 -19 89 -40 157
-62 39 -12 76 -26 83 -32 6 -5 12 -7 12 -4 0 3 28 -4 63 -15 85 -27 278 -74
377 -92 14 -3 34 -7 45 -9 11 -3 43 -8 70 -11 28 -4 64 -9 80 -12 38 -6 113
-14 190 -20 95 -8 534 -11 605 -4 36 4 72 5 81 2 9 -2 47 -49 85 -105 38 -56
72 -104 75 -107 3 -3 21 -27 39 -55 19 -27 37 -51 42 -53 4 -2 8 -10 8 -17 0
-7 3 -15 8 -17 4 -2 27 -32 51 -68 25 -36 47 -67 50 -70 4 -3 11 -12 16 -21
33 -55 79 -119 86 -119 4 0 11 -9 14 -20 3 -11 12 -26 18 -33 7 -6 30 -39 52
-72 22 -33 44 -65 50 -72 5 -7 16 -19 23 -27 6 -8 12 -19 12 -25 0 -5 3 -11 8
-13 4 -1 20 -22 36 -45 25 -38 49 -57 44 -36 -1 6 11 96 17 123 0 3 4 26 8 51
4 25 10 59 13 75 3 16 7 38 9 49 1 11 15 90 29 175 15 85 30 172 33 193 6 45
11 72 13 72 1 0 3 11 5 25 9 64 15 97 19 120 3 14 8 43 11 65 4 22 8 47 10 55
2 8 7 40 11 70 8 56 10 64 14 78 1 4 2 15 1 24 -2 20 47 54 91 63 15 4 28 11
28 16 0 5 7 9 15 9 16 0 203 90 310 150 33 18 76 42 95 53 19 11 37 22 40 26
3 4 12 11 20 14 40 19 251 162 287 196 12 12 25 21 27 21 6 0 36 24 60 47 7 6
41 35 76 64 76 63 69 57 202 185 57 56 131 132 163 170 33 37 69 78 80 90 11
12 29 34 39 49 11 14 28 36 39 48 26 30 187 254 187 261 0 3 15 26 33 52 50
74 133 223 204 368 28 57 26 72 -2 18 -11 -20 -34 -60 -52 -89 -18 -29 -33
-57 -33 -63 0 -5 -4 -10 -10 -10 -5 0 -10 -7 -10 -15 0 -8 -4 -15 -10 -15 -5
0 -10 -7 -10 -15 0 -8 -3 -15 -8 -15 -4 0 -12 -8 -17 -19 -20 -38 -80 -121
-87 -121 -5 0 -8 -7 -8 -15 0 -8 -4 -15 -10 -15 -5 0 -16 -12 -24 -28 -9 -15
-30 -43 -48 -63 -18 -20 -55 -62 -83 -94 -87 -102 -243 -252 -355 -345 -24
-19 -57 -47 -75 -62 -18 -16 -37 -28 -43 -28 -6 0 -12 -4 -14 -9 -3 -10 -124
-101 -133 -101 -3 0 -11 -5 -18 -11 -28 -24 -169 -109 -257 -155 -52 -27 -97
-51 -100 -54 -5 -5 -101 -50 -212 -99 -26 -12 -54 -21 -62 -21 -8 0 -16 -3
-18 -7 -3 -7 -199 -79 -238 -88 -8 -2 -56 -15 -107 -29 -50 -14 -102 -28 -115
-30 -13 -3 -24 -5 -25 -7 -4 -3 -15 -5 -68 -14 -27 -5 -52 -10 -55 -10 -13 -4
-79 -15 -110 -20 -19 -2 -48 -7 -64 -10 -16 -3 -54 -8 -85 -10 -31 -2 -56 -4
-56 -5 0 -13 -473 -18 -615 -7 -109 9 -230 23 -275 32 -11 3 -36 7 -55 10 -59
8 -81 13 -212 46 -24 5 -50 11 -58 13 -8 2 -22 5 -30 9 -23 8 -114 31 -120 30
-3 -1 -10 3 -15 7 -6 5 -22 11 -35 14 -14 3 -47 13 -75 24 -27 11 -77 29 -110
42 -108 40 -358 160 -422 202 -23 16 -44 28 -48 28 -3 0 -22 11 -43 24 -118
74 -189 121 -200 133 -7 7 -17 13 -22 13 -5 0 -15 6 -22 13 -7 7 -44 36 -81
64 -176 133 -429 376 -539 519 -13 16 -29 36 -37 44 -8 8 -41 51 -73 95 -32
44 -67 91 -77 104 -19 25 -116 177 -158 249 -26 44 -183 357 -183 364 0 3 -8
23 -17 44 -9 22 -17 41 -18 44 -2 7 -16 42 -25 65 -14 34 -38 100 -38 105 -1
3 -3 12 -6 20 -20 64 -58 196 -70 250 -27 114 -52 246 -60 313 -3 23 -8 52
-10 63 -2 12 -7 61 -11 110 -4 48 -9 100 -11 114 -10 75 -3 425 12 540 3 30 8
73 9 95 1 22 10 81 20 130 9 50 18 101 20 115 3 27 59 254 77 310 6 19 20 60
31 90 10 30 20 60 22 65 2 12 4 16 62 159 43 106 123 274 165 346 11 19 30 53
41 75 12 22 24 42 27 45 3 3 23 34 44 70 22 36 43 67 48 68 4 2 8 8 8 13 0 6
5 15 10 22 6 7 40 53 77 102 37 50 71 95 77 101 6 7 22 26 36 44 77 98 305
331 396 405 27 22 58 48 69 58 34 31 196 152 260 193 33 21 62 42 65 45 9 10
180 109 189 109 5 0 11 4 13 8 3 8 192 102 283 141 28 12 58 26 67 31 10 6 23
10 28 10 6 0 32 9 57 21 25 11 53 22 62 24 9 2 43 13 76 25 66 23 186 58 225
66 14 3 43 10 65 16 56 14 94 23 153 33 15 2 38 7 52 9 40 8 102 17 145 22 22
2 56 6 75 9 157 22 524 22 715 1 124 -14 139 -15 125 -7 -8 5 -31 11 -50 15
-19 3 -46 8 -60 11 -14 3 -40 8 -59 11 -18 3 -43 8 -55 10 -48 10 -158 22
-271 30 -114 9 -531 10 -585 2 l-45 -7 -50 75 c-27 40 -53 74 -57 74 -5 0 -8
4 -8 10 0 9 -64 106 -80 120 -3 3 -9 12 -15 21 -13 21 -131 191 -143 204 -9
11 -91 128 -107 153 -11 18 -15 24 -53 74 -15 20 -43 60 -62 88 -19 28 -52 74
-72 102 -21 28 -38 55 -38 60 0 13 -20 9 -21 -4z"/>
<path d="M6100 8202 c0 -4 10 -9 22 -9 18 -2 20 0 8 7 -18 12 -30 13 -30 2z"/>
<path d="M5558 7575 c-2 -1 -34 -6 -73 -9 -130 -12 -187 -19 -245 -31 -14 -3
-38 -8 -55 -11 -26 -4 -45 -9 -125 -28 -8 -2 -35 -10 -60 -17 -61 -17 -62 -17
-87 -23 -12 -2 -30 -9 -40 -14 -10 -6 -20 -10 -23 -10 -9 -1 -118 -39 -175
-62 -37 -15 -290 -140 -335 -167 -76 -44 -263 -171 -292 -198 -15 -14 -31 -25
-37 -25 -5 0 -11 -3 -13 -7 -1 -5 -28 -29 -58 -54 -104 -88 -255 -242 -350
-359 -25 -30 -49 -60 -55 -66 -5 -6 -16 -20 -23 -30 -7 -11 -37 -54 -67 -97
-30 -42 -55 -81 -55 -85 0 -4 -5 -13 -12 -20 -39 -39 -240 -452 -220 -452 4 0
2 -4 -3 -8 -16 -11 -95 -257 -110 -339 -3 -18 -9 -42 -14 -55 -5 -13 -9 -26
-9 -31 0 -8 -12 -82 -18 -112 -8 -40 -22 -155 -29 -250 -6 -67 -5 -327 1 -385
3 -30 6 -69 7 -87 1 -17 5 -29 9 -27 4 3 7 15 7 27 -1 12 2 33 5 47 3 14 9 38
12 54 36 200 238 560 439 782 5 7 42 47 80 90 230 256 542 524 815 699 41 27
77 52 78 57 2 4 12 8 22 8 10 0 20 7 24 15 3 8 12 15 20 15 8 0 21 6 29 14 20
20 130 87 218 132 41 21 76 41 79 45 3 3 16 10 30 14 14 4 27 11 30 14 5 6
148 74 285 136 219 99 578 224 805 280 8 2 53 14 100 25 47 12 94 23 105 25
11 2 31 6 45 9 14 3 79 17 145 31 66 14 131 27 145 29 14 2 41 7 60 10 47 9
73 14 82 15 4 1 6 76 5 168 -2 139 -4 167 -17 169 -8 1 -49 14 -90 28 -41 15
-76 26 -77 26 -2 0 -4 0 -5 1 -2 0 -10 2 -18 4 -8 1 -42 10 -75 18 -33 9 -72
18 -88 21 -15 3 -53 10 -85 15 -31 6 -79 13 -107 17 -27 3 -66 7 -85 10 -40 5
-447 13 -452 9z"/>
<path d="M6620 6053 c-8 -2 -22 -7 -30 -10 -8 -3 -19 -7 -25 -8 -20 -5 -192
-57 -245 -75 -77 -25 -294 -94 -300 -95 -7 -1 -100 -35 -125 -46 -11 -4 -39
-13 -63 -19 -23 -6 -64 -20 -90 -32 -26 -12 -49 -22 -52 -23 -12 -4 -63 -26
-104 -45 -25 -11 -47 -20 -50 -20 -3 0 -44 -18 -93 -41 -334 -154 -386 -181
-544 -285 -57 -38 -112 -73 -121 -79 -48 -28 -178 -121 -178 -127 0 -5 -5 -8
-10 -8 -10 0 -67 -36 -80 -50 -3 -3 -54 -43 -114 -89 -59 -46 -119 -94 -131
-105 -13 -12 -47 -41 -76 -66 -93 -80 -269 -263 -269 -280 0 -6 -6 -10 -13
-10 -7 0 -20 -12 -29 -27 -9 -16 -27 -39 -40 -53 -47 -50 -210 -263 -282 -368
-82 -120 -159 -289 -157 -347 0 -2 -5 -19 -10 -37 -9 -31 -20 -133 -23 -208
-1 -19 2 -51 6 -70 4 -19 11 -51 14 -70 3 -19 25 -63 49 -97 79 -112 90 -128
95 -133 3 -3 24 -27 45 -55 105 -131 248 -273 401 -399 43 -35 47 -33 28 13
-16 40 -16 191 0 256 14 58 69 177 123 267 47 77 215 322 233 338 3 3 18 25
34 49 39 61 184 199 316 303 30 23 57 45 60 48 3 3 30 23 60 45 30 22 57 42
60 45 3 3 28 24 55 45 28 22 52 43 53 48 2 4 10 7 17 7 7 0 15 3 17 8 7 17
132 94 248 153 69 35 127 66 130 70 32 35 256 140 605 285 99 41 188 79 199
85 10 6 26 12 35 14 9 2 57 20 106 40 50 20 97 39 105 41 8 2 49 15 90 29 41
14 80 25 87 25 10 0 13 115 13 585 0 322 -3 585 -7 584 -5 0 -15 -3 -23 -6z"/>
<path d="M6560 3812 c-125 -50 -450 -201 -472 -220 -10 -8 -18 -12 -18 -8 0 4
-15 -1 -32 -12 -18 -11 -58 -33 -88 -49 -158 -85 -180 -98 -180 -105 0 -5 -5
-8 -11 -8 -6 0 -28 -13 -48 -29 -20 -15 -81 -59 -136 -96 -55 -37 -125 -88
-155 -112 -65 -53 -262 -244 -307 -299 -17 -22 -47 -58 -67 -82 -67 -81 -124
-177 -130 -217 -3 -22 -11 -62 -17 -89 -16 -69 -7 -175 21 -228 26 -50 82
-105 127 -124 28 -12 93 -29 151 -40 12 -2 34 -6 50 -9 190 -36 495 -49 707
-31 140 12 160 14 160 16 0 1 11 4 25 5 69 10 110 17 189 35 109 24 280 74
308 89 l22 11 0 820 c-1 451 -2 820 -2 820 -1 0 -45 -18 -97 -38z"/>
</g>
</svg>
