<?xml version="1.0" encoding="utf-8"?>
<!-- Generator: Adobe Illustrator 23.0.2, SVG Export Plug-In . SVG Version: 6.00 Build 0)  -->
<svg version="1.1" id="Layer_1" xmlns="http://www.w3.org/2000/svg" xmlns:xlink="http://www.w3.org/1999/xlink" x="0px" y="0px"
	 viewBox="0 0 1440 900" style="enable-background:new 0 0 1440 900;" xml:space="preserve">
<style type="text/css">
	.st0{fill:none;stroke:#FFFFFF;stroke-width:2;stroke-miterlimit:10;}
</style>
<path class="st0" d="M1068.5,727.4L1068.5,727.4c58.3,0,106.1,47.8,106.1,106.1v210.3c0,58.3-47.8,106.1-106.1,106.1l0,0
	c-58.3,0-106.1-47.8-106.1-106.1V833.4C962.4,775.1,1010.2,727.4,1068.5,727.4z"/>
<path class="st0" d="M0,805.9L0,805.9c58.3,0,106.1,47.8,106.1,106.1v210.3c0,58.3-47.8,106.1-106.1,106.1l0,0
	c-58.3,0-106.1-47.8-106.1-106.1V912C-106.1,853.7-58.3,805.9,0,805.9z"/>
<path class="st0" d="M1397.4,508.2L1397.4,508.2c58.3,0,106.1,47.8,106.1,106.1v355.3c0,58.3-47.8,106.1-106.1,106.1l0,0
	c-58.3,0-106.1-47.8-106.1-106.1V614.2C1291.3,555.9,1339.1,508.2,1397.4,508.2z"/>
</svg>
