<?xml version="1.0" encoding="utf-8"?>
<!-- Generator: Adobe Illustrator 23.0.2, SVG Export Plug-In . SVG Version: 6.00 Build 0)  -->
<svg version="1.1" id="Layer_1" xmlns="http://www.w3.org/2000/svg" xmlns:xlink="http://www.w3.org/1999/xlink" x="0px" y="0px"
	 viewBox="0 0 1440 900" style="enable-background:new 0 0 1440 900;" xml:space="preserve">
<style type="text/css">
	.st0{fill:none;stroke:#FFFFFF;stroke-width:2;stroke-miterlimit:10;}
	.st1{fill:#FFFFFF;}
</style>
<path class="st0" d="M0-279.8L0-279.8c73,0,132.8,59.8,132.8,132.8v263.3c0,73-59.8,132.8-132.8,132.8l0,0
	c-73,0-132.8-59.8-132.8-132.8V-147C-132.8-220-73-279.8,0-279.8z"/>
<path class="st0" d="M1440,180.1L1440,180.1c73,0,132.8,59.8,132.8,132.8v444.8c0,73-59.8,132.8-132.8,132.8l0,0
	c-73,0-132.8-59.8-132.8-132.8V312.9C1307.2,239.9,1367,180.1,1440,180.1z"/>
<circle class="st1" cx="124.6" cy="162.1" r="13.9"/>
</svg>
