<?xml version="1.0" encoding="utf-8"?>
<!-- Generator: Adobe Illustrator 23.0.2, SVG Export Plug-In . SVG Version: 6.00 Build 0)  -->
<svg version="1.1" id="Layer_1" xmlns="http://www.w3.org/2000/svg" xmlns:xlink="http://www.w3.org/1999/xlink" x="0px" y="0px"
	 viewBox="0 0 1440 900" style="enable-background:new 0 0 1440 900;" xml:space="preserve">
<style type="text/css">
	.st0{fill:none;stroke:#FFFFFF;stroke-width:2;stroke-miterlimit:10;}
</style>
<path class="st0" d="M925,692.4L925,692.4c73,0,132.8,59.8,132.8,132.8v263.3c0,73-59.8,132.8-132.8,132.8h0
	c-73,0-132.8-59.8-132.8-132.8V825.2C792.2,752.2,852,692.4,925,692.4z"/>
<path class="st0" d="M1319.3,510.9L1319.3,510.9c73,0,132.8,59.8,132.8,132.8v444.8c0,73-59.8,132.8-132.8,132.8h0
	c-73,0-132.8-59.8-132.8-132.8V643.7C1186.5,570.7,1246.3,510.9,1319.3,510.9z"/>
</svg>
