<?xml version="1.0" encoding="utf-8"?>
<!-- Generator: Adobe Illustrator 23.0.2, SVG Export Plug-In . SVG Version: 6.00 Build 0)  -->
<svg version="1.1" id="Layer_1" xmlns="http://www.w3.org/2000/svg" xmlns:xlink="http://www.w3.org/1999/xlink" x="0px" y="0px"
	 viewBox="0 0 1252 18" style="enable-background:new 0 0 1252 18;" xml:space="preserve">
<style type="text/css">
	.st0{fill:none;stroke:#1F2F48;stroke-width:2;stroke-miterlimit:10;}
</style>
<g>
	<line class="st0" x1="1" y1="0" x2="1" y2="18"/>
	<line class="st0" x1="26" y1="0" x2="26" y2="18"/>
	<line class="st0" x1="13.5" y1="0" x2="13.5" y2="18"/>
	<line class="st0" x1="38.5" y1="0" x2="38.5" y2="18"/>
	<line class="st0" x1="63.5" y1="0" x2="63.5" y2="18"/>
	<line class="st0" x1="88.5" y1="0" x2="88.5" y2="18"/>
	<line class="st0" x1="113.5" y1="0" x2="113.5" y2="18"/>
	<line class="st0" x1="138.5" y1="0" x2="138.5" y2="18"/>
	<line class="st0" x1="163.5" y1="0" x2="163.5" y2="18"/>
	<line class="st0" x1="188.5" y1="0" x2="188.5" y2="18"/>
	<line class="st0" x1="213.5" y1="0" x2="213.5" y2="18"/>
	<line class="st0" x1="238.5" y1="0" x2="238.5" y2="18"/>
	<line class="st0" x1="263.5" y1="0" x2="263.5" y2="18"/>
	<line class="st0" x1="288.5" y1="0" x2="288.5" y2="18"/>
	<line class="st0" x1="313.5" y1="0" x2="313.5" y2="18"/>
	<line class="st0" x1="338.5" y1="0" x2="338.5" y2="18"/>
	<line class="st0" x1="363.5" y1="0" x2="363.5" y2="18"/>
	<line class="st0" x1="388.5" y1="0" x2="388.5" y2="18"/>
	<line class="st0" x1="413.5" y1="0" x2="413.5" y2="18"/>
	<line class="st0" x1="438.5" y1="0" x2="438.5" y2="18"/>
	<line class="st0" x1="463.5" y1="0" x2="463.5" y2="18"/>
	<line class="st0" x1="488.5" y1="0" x2="488.5" y2="18"/>
	<line class="st0" x1="513.5" y1="0" x2="513.5" y2="18"/>
	<line class="st0" x1="538.5" y1="0" x2="538.5" y2="18"/>
	<line class="st0" x1="563.5" y1="0" x2="563.5" y2="18"/>
	<line class="st0" x1="588.5" y1="0" x2="588.5" y2="18"/>
	<line class="st0" x1="51" y1="0" x2="51" y2="18"/>
	<line class="st0" x1="76" y1="0" x2="76" y2="18"/>
	<line class="st0" x1="101" y1="0" x2="101" y2="18"/>
	<line class="st0" x1="126" y1="0" x2="126" y2="18"/>
	<line class="st0" x1="151" y1="0" x2="151" y2="18"/>
	<line class="st0" x1="176" y1="0" x2="176" y2="18"/>
	<line class="st0" x1="201" y1="0" x2="201" y2="18"/>
	<line class="st0" x1="226" y1="0" x2="226" y2="18"/>
	<line class="st0" x1="251" y1="0" x2="251" y2="18"/>
	<line class="st0" x1="276" y1="0" x2="276" y2="18"/>
	<line class="st0" x1="301" y1="0" x2="301" y2="18"/>
	<line class="st0" x1="326" y1="0" x2="326" y2="18"/>
	<line class="st0" x1="351" y1="0" x2="351" y2="18"/>
	<line class="st0" x1="376" y1="0" x2="376" y2="18"/>
	<line class="st0" x1="401" y1="0" x2="401" y2="18"/>
	<line class="st0" x1="426" y1="0" x2="426" y2="18"/>
	<line class="st0" x1="451" y1="0" x2="451" y2="18"/>
	<line class="st0" x1="476" y1="0" x2="476" y2="18"/>
	<line class="st0" x1="501" y1="0" x2="501" y2="18"/>
	<line class="st0" x1="526" y1="0" x2="526" y2="18"/>
	<line class="st0" x1="551" y1="0" x2="551" y2="18"/>
	<line class="st0" x1="576" y1="0" x2="576" y2="18"/>
	<line class="st0" x1="601" y1="0" x2="601" y2="18"/>
	<line class="st0" x1="613.5" y1="0" x2="613.5" y2="18"/>
	<line class="st0" x1="626" y1="0" x2="626" y2="18"/>
	<line class="st0" x1="638.5" y1="0" x2="638.5" y2="18"/>
	<line class="st0" x1="651" y1="0" x2="651" y2="18"/>
	<line class="st0" x1="663.5" y1="0" x2="663.5" y2="18"/>
	<line class="st0" x1="676" y1="0" x2="676" y2="18"/>
	<line class="st0" x1="688.5" y1="0" x2="688.5" y2="18"/>
	<line class="st0" x1="701" y1="0" x2="701" y2="18"/>
	<line class="st0" x1="713.5" y1="0" x2="713.5" y2="18"/>
	<line class="st0" x1="726" y1="0" x2="726" y2="18"/>
	<line class="st0" x1="738.5" y1="0" x2="738.5" y2="18"/>
	<line class="st0" x1="751" y1="0" x2="751" y2="18"/>
	<line class="st0" x1="763.5" y1="0" x2="763.5" y2="18"/>
	<line class="st0" x1="776" y1="0" x2="776" y2="18"/>
	<line class="st0" x1="788.5" y1="0" x2="788.5" y2="18"/>
	<line class="st0" x1="801" y1="0" x2="801" y2="18"/>
	<line class="st0" x1="813.5" y1="0" x2="813.5" y2="18"/>
	<line class="st0" x1="826" y1="0" x2="826" y2="18"/>
	<line class="st0" x1="838.5" y1="0" x2="838.5" y2="18"/>
	<line class="st0" x1="851" y1="0" x2="851" y2="18"/>
	<line class="st0" x1="863.5" y1="0" x2="863.5" y2="18"/>
	<line class="st0" x1="876" y1="0" x2="876" y2="18"/>
	<line class="st0" x1="888.5" y1="0" x2="888.5" y2="18"/>
	<line class="st0" x1="901" y1="0" x2="901" y2="18"/>
	<line class="st0" x1="913.5" y1="0" x2="913.5" y2="18"/>
	<line class="st0" x1="926" y1="0" x2="926" y2="18"/>
	<line class="st0" x1="938.5" y1="0" x2="938.5" y2="18"/>
	<line class="st0" x1="951" y1="0" x2="951" y2="18"/>
	<line class="st0" x1="963.5" y1="0" x2="963.5" y2="18"/>
	<line class="st0" x1="976" y1="0" x2="976" y2="18"/>
	<line class="st0" x1="988.5" y1="0" x2="988.5" y2="18"/>
	<line class="st0" x1="1001" y1="0" x2="1001" y2="18"/>
	<line class="st0" x1="1013.5" y1="0" x2="1013.5" y2="18"/>
	<line class="st0" x1="1026" y1="0" x2="1026" y2="18"/>
	<line class="st0" x1="1038.5" y1="0" x2="1038.5" y2="18"/>
	<line class="st0" x1="1051" y1="0" x2="1051" y2="18"/>
	<line class="st0" x1="1063.5" y1="0" x2="1063.5" y2="18"/>
	<line class="st0" x1="1076" y1="0" x2="1076" y2="18"/>
	<line class="st0" x1="1088.5" y1="0" x2="1088.5" y2="18"/>
	<line class="st0" x1="1101" y1="0" x2="1101" y2="18"/>
	<line class="st0" x1="1113.5" y1="0" x2="1113.5" y2="18"/>
	<line class="st0" x1="1126" y1="0" x2="1126" y2="18"/>
	<line class="st0" x1="1138.5" y1="0" x2="1138.5" y2="18"/>
	<line class="st0" x1="1151" y1="0" x2="1151" y2="18"/>
	<line class="st0" x1="1163.5" y1="0" x2="1163.5" y2="18"/>
	<line class="st0" x1="1176" y1="0" x2="1176" y2="18"/>
	<line class="st0" x1="1188.5" y1="0" x2="1188.5" y2="18"/>
	<line class="st0" x1="1201" y1="0" x2="1201" y2="18"/>
	<line class="st0" x1="1213.5" y1="0" x2="1213.5" y2="18"/>
	<line class="st0" x1="1226" y1="0" x2="1226" y2="18"/>
	<line class="st0" x1="1238.5" y1="0" x2="1238.5" y2="18"/>
	<line class="st0" x1="1251" y1="0" x2="1251" y2="18"/>
</g>
</svg>
