<?xml version="1.0" encoding="utf-8"?>
<!-- Generator: Adobe Illustrator 23.0.2, SVG Export Plug-In . SVG Version: 6.00 Build 0)  -->
<svg version="1.1" id="Layer_1" xmlns="http://www.w3.org/2000/svg" xmlns:xlink="http://www.w3.org/1999/xlink" x="0px" y="0px"
	 viewBox="0 0 402 18" style="enable-background:new 0 0 402 18;" xml:space="preserve">
<style type="text/css">
	.st0{fill:none;stroke:#CBD3D2;stroke-width:2;stroke-miterlimit:10;}
</style>
<g>
	<line class="st0" x1="1" y1="0" x2="1" y2="18"/>
	<line class="st0" x1="26" y1="0" x2="26" y2="18"/>
	<line class="st0" x1="13.5" y1="0" x2="13.5" y2="18"/>
	<line class="st0" x1="38.5" y1="0" x2="38.5" y2="18"/>
	<line class="st0" x1="63.5" y1="0" x2="63.5" y2="18"/>
	<line class="st0" x1="88.5" y1="0" x2="88.5" y2="18"/>
	<line class="st0" x1="113.5" y1="0" x2="113.5" y2="18"/>
	<line class="st0" x1="138.5" y1="0" x2="138.5" y2="18"/>
	<line class="st0" x1="163.5" y1="0" x2="163.5" y2="18"/>
	<line class="st0" x1="188.5" y1="0" x2="188.5" y2="18"/>
	<line class="st0" x1="213.5" y1="0" x2="213.5" y2="18"/>
	<line class="st0" x1="238.5" y1="0" x2="238.5" y2="18"/>
	<line class="st0" x1="263.5" y1="0" x2="263.5" y2="18"/>
	<line class="st0" x1="288.5" y1="0" x2="288.5" y2="18"/>
	<line class="st0" x1="313.5" y1="0" x2="313.5" y2="18"/>
	<line class="st0" x1="338.5" y1="0" x2="338.5" y2="18"/>
	<line class="st0" x1="363.5" y1="0" x2="363.5" y2="18"/>
	<line class="st0" x1="388.5" y1="0" x2="388.5" y2="18"/>
	<line class="st0" x1="51" y1="0" x2="51" y2="18"/>
	<line class="st0" x1="76" y1="0" x2="76" y2="18"/>
	<line class="st0" x1="101" y1="0" x2="101" y2="18"/>
	<line class="st0" x1="126" y1="0" x2="126" y2="18"/>
	<line class="st0" x1="151" y1="0" x2="151" y2="18"/>
	<line class="st0" x1="176" y1="0" x2="176" y2="18"/>
	<line class="st0" x1="201" y1="0" x2="201" y2="18"/>
	<line class="st0" x1="226" y1="0" x2="226" y2="18"/>
	<line class="st0" x1="251" y1="0" x2="251" y2="18"/>
	<line class="st0" x1="276" y1="0" x2="276" y2="18"/>
	<line class="st0" x1="301" y1="0" x2="301" y2="18"/>
	<line class="st0" x1="326" y1="0" x2="326" y2="18"/>
	<line class="st0" x1="351" y1="0" x2="351" y2="18"/>
	<line class="st0" x1="376" y1="0" x2="376" y2="18"/>
	<line class="st0" x1="401" y1="0" x2="401" y2="18"/>
</g>
</svg>
