<?xml version="1.0" encoding="utf-8"?>
<!-- Generator: Adobe Illustrator 23.0.2, SVG Export Plug-In . SVG Version: 6.00 Build 0)  -->
<svg version="1.1" id="Layer_1" xmlns="http://www.w3.org/2000/svg" xmlns:xlink="http://www.w3.org/1999/xlink" x="0px" y="0px"
	 viewBox="0 0 198 198" style="enable-background:new 0 0 198 198;" xml:space="preserve">
<style type="text/css">
	.st0{fill:#428E8D;}
	.st1{fill:none;stroke:#428E8D;stroke-width:8;stroke-miterlimit:10;}
</style>
<g>
	<g>
		<g>
			<g>
				<path class="st0" d="M99,8c50.2,0,91,40.8,91,91s-40.8,91-91,91S8,149.2,8,99S48.8,8,99,8 M99,0C44.3,0,0,44.3,0,99
					s44.3,99,99,99s99-44.3,99-99S153.7,0,99,0L99,0z"/>
			</g>
		</g>
	</g>
	<line class="st1" x1="90" y1="108" x2="54" y2="144"/>
	<line class="st1" x1="144" y1="54" x2="108" y2="90"/>
	<polyline class="st1" points="54,108 54,144 90,144 	"/>
	<polyline class="st1" points="144,90 144,54 108,54 	"/>
</g>
</svg>
