<?xml version="1.0" encoding="utf-8"?>
<!-- Generator: Adobe Illustrator 23.0.2, SVG Export Plug-In . SVG Version: 6.00 Build 0)  -->
<svg version="1.1" id="Layer_1" xmlns="http://www.w3.org/2000/svg" xmlns:xlink="http://www.w3.org/1999/xlink" x="0px" y="0px"
	 viewBox="0 0 870 330" style="enable-background:new 0 0 870 330;" xml:space="preserve">
<style type="text/css">
	.st0{fill:#FFFFFF;stroke:#1D3E68;stroke-width:6;stroke-linecap:round;stroke-linejoin:round;stroke-miterlimit:10;}
	.st1{fill:none;stroke:#E8B637;stroke-width:6;stroke-linecap:round;stroke-linejoin:round;stroke-miterlimit:10;}
	.st2{fill:#FFFFFF;stroke:#E8B637;stroke-width:6;stroke-linecap:round;stroke-linejoin:round;stroke-miterlimit:10;}
</style>
<g>
	<g>
		<g>
			<rect x="3" y="3" class="st0" width="396" height="288"/>
		</g>
		<g>
			<rect x="75" y="183" class="st0" width="36" height="72"/>
			<rect x="147" y="75" class="st0" width="36" height="180"/>
			<rect x="219" y="111" class="st0" width="36" height="144"/>
			<rect x="291" y="147" class="st0" width="36" height="108"/>
		</g>
	</g>
	<g>
		<rect x="471" y="3" class="st0" width="396" height="288"/>
		<polyline class="st0" points="543,183 597,129 651,183 741,75 795,129 		"/>
	</g>
	<g>
		<g>
			<rect x="255" y="39" class="st0" width="432" height="288"/>
		</g>
		<g>
			<path class="st1" d="M291,291h90v-90C358.5,246,336,291,291,291z"/>
			<path class="st1" d="M471,111c-45,0-67.5,45-90,90v90h135V130.18C503.67,118.44,489.2,111,471,111z"/>
			<path class="st1" d="M516,130.18V291h135C579.2,291,564.64,176.5,516,130.18z"/>
		</g>
	</g>
</g>
</svg>
