<?xml version="1.0" encoding="utf-8"?>
<!-- Generator: Adobe Illustrator 23.0.2, SVG Export Plug-In . SVG Version: 6.00 Build 0)  -->
<svg version="1.1" id="Layer_1" xmlns="http://www.w3.org/2000/svg" xmlns:xlink="http://www.w3.org/1999/xlink" x="0px" y="0px"
	 viewBox="0 0 726 330" style="enable-background:new 0 0 726 330;" xml:space="preserve">
<style type="text/css">
	.st0{fill:#FFFFFF;stroke:#1D3E68;stroke-width:6;stroke-linecap:round;stroke-linejoin:round;stroke-miterlimit:10;}
	.st1{fill:none;stroke:#E8B637;stroke-width:6;stroke-linecap:round;stroke-linejoin:round;stroke-miterlimit:10;}
	.st2{fill:#FFFFFF;stroke:#E8B637;stroke-width:6;stroke-linecap:round;stroke-linejoin:round;stroke-miterlimit:10;}
</style>
<g>
	<g>
		<rect x="3" y="75" class="st0" width="396" height="252"/>
		<path class="st0" d="M291,75h-36V51c0-6.63-5.37-12-12-12h-84c-6.63,0-12,5.37-12,12v24h-36V43c0-22.09,17.91-40,40-40h100
			c22.09,0,40,17.91,40,40V75z"/>
	</g>
	<g>
		<g>
			<polygon class="st0" points="687,3 471,3 471,292.24 687,291 			"/>
		</g>
		<g>
			<polygon class="st0" points="687,39 507,39 507,327 723,327 723,75 			"/>
			<polygon class="st0" points="687,75 723,75 687,39 			"/>
			<g>
				<line class="st2" x1="543" y1="110.22" x2="687" y2="111"/>
				<line class="st2" x1="543" y1="145.84" x2="687" y2="147"/>
				<line class="st2" x1="543" y1="183" x2="687" y2="183"/>
				<line class="st2" x1="543" y1="217.06" x2="687" y2="217.06"/>
				<line class="st2" x1="543" y1="252.67" x2="665.28" y2="252.67"/>
			</g>
		</g>
	</g>
</g>
</svg>
