<?xml version="1.0" encoding="utf-8"?>
<!-- Generator: Adobe Illustrator 23.0.2, SVG Export Plug-In . SVG Version: 6.00 Build 0)  -->
<svg version="1.1" id="Layer_1" xmlns="http://www.w3.org/2000/svg" xmlns:xlink="http://www.w3.org/1999/xlink" x="0px" y="0px"
	 viewBox="0 0 870 330" style="enable-background:new 0 0 870 330;" xml:space="preserve">
<style type="text/css">
	.st0{fill:#FFFFFF;stroke:#1D3E68;stroke-width:6;stroke-linecap:round;stroke-linejoin:round;stroke-miterlimit:10;}
	.st1{fill:none;stroke:#E8B637;stroke-width:6;stroke-linecap:round;stroke-linejoin:round;stroke-miterlimit:10;}
	.st2{fill:#FFFFFF;stroke:#E8B637;stroke-width:6;stroke-linecap:round;stroke-linejoin:round;stroke-miterlimit:10;}
</style>
<g>
	<g>
		<line class="st0" x1="867" y1="219" x2="795" y2="147"/>
		<circle class="st0" cx="741" cy="93" r="90"/>
	</g>
	<g>
		<g>
			<polygon class="st0" points="543,327 3,327 111,219 651,219 			"/>
			<line class="st0" x1="111" y1="327" x2="219" y2="219"/>
			<line class="st0" x1="327" y1="327" x2="435" y2="219"/>
			<line class="st0" x1="39" y1="291" x2="579" y2="291"/>
		</g>
		<g>
			<path class="st2" d="M572.82,197.91L507,263.74l-65.82-65.82c-36.35-36.35-36.35-95.29,0-131.65l0,0
				c36.35-36.35,95.29-36.35,131.65,0l0,0C609.18,102.62,609.18,161.56,572.82,197.91z"/>
			<circle class="st2" cx="507" cy="128.63" r="42.73"/>
		</g>
	</g>
</g>
</svg>
