<?xml version="1.0" encoding="utf-8"?>
<!-- Generator: Adobe Illustrator 23.0.2, SVG Export Plug-In . SVG Version: 6.00 Build 0)  -->
<svg version="1.1" id="Layer_1" xmlns="http://www.w3.org/2000/svg" xmlns:xlink="http://www.w3.org/1999/xlink" x="0px" y="0px"
	 viewBox="0 0 870 330" style="enable-background:new 0 0 870 330;" xml:space="preserve">
<style type="text/css">
	.st0{fill:#FFFFFF;stroke:#1D3E68;stroke-width:6;stroke-linecap:round;stroke-linejoin:round;stroke-miterlimit:10;}
	.st1{fill:none;stroke:#E8B637;stroke-width:6;stroke-linecap:round;stroke-linejoin:round;stroke-miterlimit:10;}
	.st2{fill:#FFFFFF;stroke:#E8B637;stroke-width:6;stroke-linecap:round;stroke-linejoin:round;stroke-miterlimit:10;}
</style>
<g>
	<g>
		<circle class="st2" cx="471" cy="111" r="72"/>
		<g>
			<path class="st2" d="M471,183c79.53,0,144,64.47,144,144H327C327,247.47,391.47,183,471,183z"/>
		</g>
	</g>
	<g>
		<circle class="st0" cx="147" cy="111" r="72"/>
		<g>
			<path class="st0" d="M147,183c79.53,0,144,64.47,144,144H3C3,247.47,67.47,183,147,183z"/>
		</g>
	</g>
	<g>
		<path class="st0" d="M645.57,3h190.86C853.31,3,867,16.69,867,33.57v118.86c0,16.88-13.69,30.57-30.57,30.57H723l-36,36v-36
			h-41.43c-16.88,0-30.57-13.69-30.57-30.57V33.57C615,16.69,628.69,3,645.57,3z"/>
		<line class="st0" x1="831" y1="39" x2="651" y2="39"/>
		<line class="st0" x1="831" y1="111" x2="651" y2="111"/>
		<line class="st0" x1="831" y1="147" x2="687" y2="147"/>
		<line class="st0" x1="831" y1="75" x2="651" y2="75"/>
		<line class="st0" x1="831" y1="111" x2="687" y2="111"/>
	</g>
</g>
</svg>
