<?xml version="1.0" encoding="utf-8"?>
<!-- Generator: Adobe Illustrator 23.0.2, SVG Export Plug-In . SVG Version: 6.00 Build 0)  -->
<svg version="1.1" id="Layer_1" xmlns="http://www.w3.org/2000/svg" xmlns:xlink="http://www.w3.org/1999/xlink" x="0px" y="0px"
	 viewBox="0 0 314.8 53.1" style="enable-background:new 0 0 314.8 53.1;" xml:space="preserve">
<style type="text/css">
	.st0{fill:#1A65AF;}
	.st1{fill:#1799D1;}
	.st2{fill:#010101;}
	.st3{font-family:'HelveticaNeue-CondensedBold';}
	.st4{font-size:24.6725px;}
</style>
<g>
	<g>
		<g>
			<path class="st0" d="M29.2,42.5c0,0,0.1,0,0.1,0C29.2,42.5,29.2,42.5,29.2,42.5z"/>
			<path class="st0" d="M29.9,42.5c-0.1,0-0.1,0-0.2,0C29.8,42.5,29.9,42.5,29.9,42.5z"/>
			<path class="st0" d="M30.4,42.5c0.1,0,0.1,0,0.2,0C30.5,42.5,30.4,42.5,30.4,42.5z"/>
			<path class="st0" d="M30.1,42.5c0.1,0,0.1,0,0.2,0C30.2,42.5,30.1,42.5,30.1,42.5z"/>
			<path class="st0" d="M30.7,42.5c0.1,0,0.1,0,0.2,0C30.8,42.5,30.8,42.5,30.7,42.5z"/>
			<path class="st0" d="M31.3,42.5c-0.1,0-0.2,0-0.3,0C31.1,42.5,31.2,42.5,31.3,42.5z"/>
			<path class="st0" d="M27.3,42.4c0,0,0.1,0,0.1,0C27.4,42.4,27.4,42.4,27.3,42.4z"/>
			<path class="st0" d="M26.7,42.3c0,0,0.1,0,0.1,0C26.8,42.3,26.8,42.3,26.7,42.3z"/>
			<path class="st0" d="M27,42.3c0,0,0.1,0,0.1,0C27.1,42.3,27.1,42.3,27,42.3z"/>
			<path class="st0" d="M29.1,41.8c0.4,0.1,0.8,0.1,1.2,0.1C29.9,41.9,29.5,41.9,29.1,41.8z"/>
			<path class="st0" d="M27.9,42.4C28,42.4,28,42.4,27.9,42.4C28,42.4,28,42.4,27.9,42.4z"/>
			<path class="st0" d="M28.2,42.5c0,0,0.1,0,0.1,0C28.3,42.5,28.3,42.5,28.2,42.5z"/>
			<path class="st0" d="M27.6,42.4C27.7,42.4,27.7,42.4,27.6,42.4C27.7,42.4,27.7,42.4,27.6,42.4z"/>
			<path class="st0" d="M28.5,42.5c0,0,0.1,0,0.1,0C28.6,42.5,28.6,42.5,28.5,42.5z"/>
			<path class="st0" d="M28.9,42.5c0,0,0.1,0,0.1,0C28.9,42.5,28.9,42.5,28.9,42.5z"/>
			<path class="st0" d="M29.5,42.5c0,0,0.1,0,0.1,0C29.6,42.5,29.5,42.5,29.5,42.5z"/>
			<path class="st0" d="M23,30.8c0,0,0.1,0.1,0.1,0.1C23,30.9,23,30.8,23,30.8z"/>
			<path class="st0" d="M19.7,32.8c-0.2-0.2-0.4-0.5-0.6-0.7c-0.2-0.2-0.4-0.5-0.6-0.7c0.2,0.3,0.4,0.5,0.6,0.7
				C19.3,32.3,19.5,32.6,19.7,32.8z"/>
			<path class="st0" d="M23.9,39.9C23.9,39.9,23.9,40,23.9,39.9C23.9,40,23.9,39.9,23.9,39.9z"/>
			<path class="st0" d="M24.1,40c0,0,0.1,0,0.1,0C24.2,40.1,24.2,40.1,24.1,40z"/>
			<path class="st0" d="M24.9,38.4c0.1,0,0.1,0.1,0.2,0.1C25,38.5,24.9,38.4,24.9,38.4z"/>
			<path class="st0" d="M23.6,14.8c0-0.1-0.1-0.2-0.1-0.3c0-0.1-0.1-0.2-0.1-0.3c0-0.1-0.1-0.2-0.1-0.3c-0.1-0.2-0.1-0.5-0.2-0.7
				c-0.1-0.2-0.1-0.5-0.2-0.7c-0.1-0.2-0.1-0.4-0.2-0.6c0-0.1-0.1-0.3-0.1-0.4c-0.4,0.2-0.8,0.3-1.2,0.5c-0.5,0.2-1,0.5-1.5,0.7
				c-0.5,0.2-1,0.5-1.4,0.8c-1.4,0.8-2.6,1.6-3.6,2.5c-1,0.9-1.9,1.8-2.6,2.7c-0.7,0.9-1.2,1.8-1.6,2.7c-0.4,0.9-0.5,1.7-0.6,2.5
				c0,1.7,0,1.9,0.2,4c0.1,0.4,0.2,0.9,0.3,1.3c-0.1-0.8-0.1-1.6,0.1-2.4c0.2-1,0.7-2,1.4-3.1c0.7-1.1,1.7-2.1,2.9-3.2
				c1.2-1.1,2.7-2.1,4.4-3.1c0.5-0.3,1-0.5,1.5-0.8c0.5-0.3,1-0.5,1.6-0.7c0.4-0.2,0.9-0.4,1.3-0.5l0-0.1
				C23.7,15.1,23.7,15,23.6,14.8z"/>
			<path class="st0" d="M10.7,29.1c0,0.1,0,0.2,0.1,0.4C10.8,29.3,10.8,29.2,10.7,29.1z"/>
			<path class="st0" d="M14,36.1c0.1,0.1,0.1,0.2,0.2,0.3C14.1,36.3,14,36.2,14,36.1z"/>
			<path class="st0" d="M20.3,22.4c0-0.1-0.1-0.2-0.1-0.3c-0.2-0.4-0.3-0.8-0.5-1.1c-0.1-0.4-0.3-0.8-0.4-1.1
				c-1.7,1-3.1,2.1-4.2,3.1c-1.1,1.1-2,2.1-2.7,3.2c-0.6,1-1,2-1.1,3c-0.1,0.9,0,1.8,0.3,2.6c0.2,0.6,0.6,1.3,0.8,1.8
				c0.5,0.9,0.5,1,1.5,2.4c-0.4-0.6-0.6-1.4-0.7-2.1c0-0.9,0.2-1.9,0.8-2.9c0.6-1.1,1.4-2.2,2.6-3.3c1.2-1.1,2.7-2.2,4.5-3.3
				c-0.2-0.4-0.4-0.8-0.5-1.2C20.6,23,20.4,22.7,20.3,22.4z"/>
			<path class="st0" d="M33.2,15c-1.4,0.2-2.9,0.5-4.4,0.9c-1.5,0.4-3,0.9-4.4,1.4c0.1,0.4,0.3,0.8,0.4,1.2c0.1,0.4,0.3,0.8,0.4,1.2
				c0.1,0.4,0.3,0.8,0.4,1.2c0.1,0.4,0.3,0.8,0.5,1.2c0,0,0,0,0,0v0c0.2-0.1,0.6-0.2,0.9-0.3c1.8-0.6,3.5-1.2,5.2-1.5
				c0.8-0.2,1.6-0.3,2.2-0.4v-4.9C34.1,14.9,33.7,15,33.2,15z"/>
			<path class="st0" d="M19.7,32.8c-0.2-0.2-0.4-0.5-0.6-0.7c-0.2-0.2-0.4-0.5-0.6-0.7c-0.1-0.1-0.1-0.2-0.2-0.3
				c-0.3-0.3-0.5-0.7-0.8-1c-0.8,0.8-1.5,1.6-2,2.4c-0.5,0.8-0.8,1.5-0.9,2.2c-0.1,0.7-0.1,1.3,0.1,1.9c0.2,0.6,0.5,1.1,1,1.6
				c0.4,0.4,0.9,0.8,1.2,1.2c1,0.8,1.3,1,2.5,1.8c-0.7-0.5-1.1-1-1.3-1.6c-0.2-0.8-0.1-1.6,0.3-2.5C19,36,19.7,35,20.8,34
				c-0.3-0.3-0.6-0.7-0.9-1C19.9,33,19.8,32.9,19.7,32.8z"/>
			<path class="st0" d="M19.5,41.1c0.1,0.1,0.2,0.1,0.3,0.2C19.7,41.2,19.6,41.2,19.5,41.1z"/>
			<path class="st0" d="M32.9,22.5c-1.7,0.4-3.4,0.9-5,1.5c-1.7,0.6-3.3,1.3-4.9,2.2c-0.2,0.1-0.4,0.2-0.5,0.3
				c-0.2,0.1-0.4,0.2-0.5,0.3c-0.2,0.1-0.3,0.2-0.5,0.3c-0.2,0.1-0.3,0.2-0.5,0.3c0.2,0.4,0.4,0.8,0.7,1.1c0.2,0.4,0.5,0.7,0.7,1.1
				c0.2,0.4,0.5,0.7,0.7,1.1c0,0,0.1,0.1,0.1,0.1c0.2,0.3,0.5,0.7,0.7,1c0.6-0.3,1.2-0.7,1.8-1c1.3-0.7,2.7-1.3,4.2-1.8
				c1.4-0.5,2.8-1,4.2-1.3c0.2,0,0.4-0.1,0.6-0.1v-5.4C34.1,22.3,33.4,22.4,32.9,22.5z"/>
			<path class="st0" d="M27.3,43.8l-0.5-0.1c0,0,0.1,0,0.1,0C27,43.8,27.2,43.8,27.3,43.8z"/>
			<path class="st0" d="M24.1,40C24.1,40,24,40,24,40c0,0-0.1,0-0.1,0c-0.1,0-0.2-0.1-0.2-0.1c-0.1,0-0.2-0.1-0.3-0.1
				c-0.3-0.1-0.6-0.3-0.8-0.4c-0.4-0.2-0.7-0.4-1.1-0.6c-0.4-0.2-0.7-0.4-1-0.6c-0.3,0.5-0.4,0.9-0.5,1.4c-0.1,0.4,0,0.8,0.1,1.2
				c0.1,0.4,0.4,0.7,0.7,1c0.3,0.3,0.7,0.5,1.2,0.8c0.4,0.2,0.9,0.4,1.3,0.5c1.3,0.4,1.6,0.5,3,0.8l0.5,0.1c-0.1,0-0.2,0-0.3-0.1
				c-0.1,0-0.2-0.1-0.4-0.1c-0.1,0-0.2-0.1-0.3-0.1c-0.4-0.1-0.7-0.3-1-0.5c-0.3-0.2-0.4-0.5-0.5-0.7c-0.1-0.3-0.1-0.6,0-0.9
				c0.1-0.3,0.2-0.7,0.5-1c-0.2-0.1-0.3-0.1-0.5-0.2C24.2,40.1,24.2,40.1,24.1,40z"/>
			<path class="st0" d="M34.4,30c-1.3,0.3-2.6,0.7-3.8,1.2c-1.3,0.5-2.5,1-3.7,1.6c-0.5,0.3-1,0.6-1.5,0.8c-0.5,0.3-0.9,0.6-1.3,0.9
				c-0.4,0.3-0.8,0.6-1.2,0.9c-0.4,0.3-0.7,0.6-1,0.9c0.3,0.3,0.7,0.5,1,0.8c0.3,0.2,0.7,0.5,1,0.7c0.3,0.2,0.7,0.5,1,0.7
				c0.1,0,0.1,0.1,0.2,0.1c0.3,0.2,0.6,0.3,0.8,0.5c0.2-0.2,0.4-0.4,0.7-0.6c0.4-0.3,0.9-0.6,1.4-1c0.5-0.3,1.1-0.6,1.7-0.9
				c0.9-0.4,1.7-0.8,2.7-1.2c0.8-0.3,1.7-0.5,2.2-0.7v-4.7C34.5,29.9,34.4,29.9,34.4,30z"/>
			<path class="st0" d="M29.6,42.5c-1.3,0-2.4-0.1-3.2-0.3c0,2.2,4.9,1.5,6.2,1c-0.6,0.1-1.4-0.2-1.3-0.8
				C31.2,42.5,30.3,42.5,29.6,42.5z"/>
			<path class="st0" d="M33,37.1c-0.8,0.3-1.5,0.6-2.2,1c-0.6,0.3-1,0.6-1.5,0.8c-0.5,0.3-0.9,0.6-1.2,0.9c-0.4,0.3-0.6,0.6-0.9,0.8
				c-0.2,0.3-0.4,0.5-0.6,0.8c0.4,0.1,0.8,0.2,1.2,0.3c0.4,0.1,0.8,0.1,1.2,0.2c0.4,0.1,0.8,0.1,1.2,0.1c0.4,0,0.8,0.1,1.2,0.1l0,0
				l0,0c0.1-0.2,0.2-0.3,0.4-0.5c0.2-0.2,0.4-0.3,0.7-0.5c0.3-0.2,0.6-0.3,0.9-0.5c0.3-0.2,0.6-0.3,1-0.4c0,0,0,0,0,0v-3.5
				C34.1,36.7,33.5,36.9,33,37.1z"/>
			<path class="st0" d="M31.2,13.2c0-0.1-0.1-0.2-0.1-0.3c0-0.1-0.1-0.2-0.1-0.3c0-0.1-0.1-0.2-0.1-0.3c0-0.1-0.1-0.2-0.1-0.3
				c-0.1-0.2-0.2-0.5-0.2-0.7c-0.1-0.2-0.2-0.4-0.2-0.6c-0.1-0.2-0.2-0.4-0.2-0.6c-0.1-0.2-0.2-0.4-0.2-0.6
				c-0.4,0.1-0.9,0.1-1.3,0.2c-0.4,0.1-0.9,0.2-1.3,0.3c-0.4,0.1-0.9,0.2-1.3,0.3c-0.4,0.1-0.9,0.3-1.3,0.4c0.1,0.2,0.1,0.4,0.2,0.6
				c0.1,0.2,0.1,0.4,0.2,0.6c0.1,0.2,0.1,0.4,0.2,0.7c0.1,0.2,0.1,0.5,0.2,0.7c0,0.1,0.1,0.2,0.1,0.3c0,0.1,0.1,0.2,0.1,0.3
				c0,0.1,0.1,0.2,0.1,0.3c0,0.1,0.1,0.2,0.1,0.3c0.5-0.2,0.9-0.3,1.4-0.4c0.5-0.1,0.9-0.3,1.4-0.4c0.5-0.1,0.9-0.2,1.4-0.3
				C30.3,13.4,30.7,13.3,31.2,13.2z"/>
			<path class="st0" d="M23.8,31.9C23.8,31.9,23.8,31.9,23.8,31.9C23.8,31.9,23.8,31.9,23.8,31.9L23.8,31.9z"/>
		</g>
		<g>
			<path class="st1" d="M10.8,22.4c0.4-0.9,0.9-1.8,1.6-2.7c0.7-0.9,1.6-1.8,2.6-2.7c1-0.9,2.2-1.7,3.6-2.5c0.5-0.3,0.9-0.5,1.4-0.8
				c0.5-0.2,1-0.5,1.5-0.7c0.4-0.2,0.8-0.3,1.2-0.5c0,0.1,0.1,0.3,0.1,0.4c0.1,0.2,0.1,0.4,0.2,0.6c0.1,0.2,0.1,0.4,0.2,0.7
				c0.1,0.2,0.1,0.5,0.2,0.7c0,0.1,0.1,0.2,0.1,0.3c0,0,0,0,0,0.1c0.1,0,0.2-0.1,0.3-0.1l0-0.1c0-0.1-0.1-0.2-0.1-0.3
				c0-0.1-0.1-0.2-0.1-0.3c0-0.1-0.1-0.2-0.1-0.3c0-0.1-0.1-0.2-0.1-0.3c-0.1-0.2-0.1-0.5-0.2-0.7c-0.1-0.2-0.1-0.5-0.2-0.7
				c-0.1-0.2-0.1-0.4-0.2-0.6c0-0.1-0.1-0.3-0.1-0.4c-0.4,0.2-0.8,0.3-1.2,0.5c-0.5,0.2-1,0.5-1.5,0.7c-0.5,0.2-1,0.5-1.4,0.8
				c-1.4,0.8-2.6,1.6-3.6,2.5c-1,0.9-1.9,1.8-2.6,2.7c-0.7,0.9-1.2,1.8-1.6,2.7c-0.4,0.9-0.5,1.7-0.6,2.5c0,0.6,0,1.1,0,1.5
				c0-0.1,0-0.2,0-0.4C10.3,24.1,10.5,23.3,10.8,22.4z"/>
			<path class="st1" d="M12.4,27.3c0.6-1.1,1.5-2.1,2.7-3.2c1.2-1.1,2.6-2.1,4.2-3.1c0.1,0.4,0.3,0.8,0.4,1.1
				c0.1,0.4,0.3,0.8,0.5,1.1c0,0.1,0.1,0.2,0.1,0.3c0.1,0.3,0.2,0.6,0.4,0.9c0,0.1,0.1,0.2,0.1,0.3c0.1-0.1,0.3-0.2,0.4-0.2
				c-0.2-0.4-0.4-0.8-0.5-1.2c-0.1-0.3-0.3-0.6-0.4-0.9c0-0.1-0.1-0.2-0.1-0.3c-0.2-0.4-0.3-0.8-0.5-1.1c-0.1-0.4-0.3-0.8-0.4-1.1
				c-1.7,1-3.1,2.1-4.2,3.1c-1.1,1.1-2,2.1-2.7,3.2c-0.6,1-1,2-1.1,3c-0.1,0.5-0.1,0.9,0,1.3c0-0.1,0-0.1,0-0.2
				C11.4,29.4,11.8,28.4,12.4,27.3z"/>
			<path class="st1" d="M33.2,15c-1.4,0.2-2.9,0.5-4.4,0.9c-1.5,0.4-3,0.9-4.4,1.4c0.1,0.3,0.2,0.7,0.3,1c1.3-0.5,2.7-1,4.1-1.3
				c1.5-0.4,2.9-0.7,4.3-0.9c0.4-0.1,0.9-0.1,1.3-0.1v-1.1C34.1,14.9,33.7,15,33.2,15z"/>
			<path class="st1" d="M15.6,33.6c0.5-0.8,1.1-1.6,2-2.4c0.2,0.3,0.5,0.7,0.8,1c0.1,0.1,0.1,0.2,0.2,0.3c0.2,0.3,0.4,0.5,0.6,0.7
				c0.2,0.2,0.4,0.5,0.6,0.7c0.1,0.1,0.1,0.2,0.2,0.2c0.1,0.1,0.2,0.2,0.3,0.4c0.2-0.2,0.4-0.4,0.6-0.5c-0.3-0.3-0.6-0.7-0.9-1
				c-0.1-0.1-0.1-0.2-0.2-0.2c-0.2-0.2-0.4-0.5-0.6-0.7c-0.2-0.2-0.4-0.5-0.6-0.7c-0.1-0.1-0.1-0.2-0.2-0.3c-0.3-0.3-0.5-0.7-0.8-1
				c-0.8,0.8-1.5,1.6-2,2.4c-0.5,0.8-0.8,1.5-0.9,2.2c-0.1,0.5-0.1,1,0,1.4c0-0.1,0-0.2,0-0.3C14.8,35.1,15.1,34.3,15.6,33.6z"/>
			<path class="st1" d="M27.9,24c-1.7,0.6-3.3,1.3-4.9,2.2c-0.2,0.1-0.4,0.2-0.6,0.3c-0.2,0.1-0.4,0.2-0.5,0.3
				c-0.2,0.1-0.3,0.2-0.5,0.3c-0.2,0.1-0.3,0.2-0.5,0.3c0.2,0.3,0.3,0.6,0.5,0.8c0,0,0,0,0,0c0.2-0.1,0.3-0.2,0.5-0.3
				c0.2-0.1,0.4-0.2,0.5-0.3c0.2-0.1,0.4-0.2,0.6-0.3c1.5-0.8,3.2-1.6,4.9-2.2c1.7-0.6,3.3-1.1,5-1.5c0.6-0.1,1.3-0.2,1.7-0.3v-1.1
				c-0.4,0.1-1.1,0.2-1.7,0.3C31.2,22.9,29.5,23.4,27.9,24z"/>
			<path class="st1" d="M21.5,39.8c0.4,0.2,0.7,0.4,1.1,0.6c0.3,0.1,0.5,0.3,0.8,0.4c0.1,0,0.2,0.1,0.3,0.1c0.1,0,0.2,0.1,0.2,0.1
				c0,0,0.1,0,0.1,0c0.1,0,0.1,0,0.2,0.1c0,0,0.1,0,0.1,0c0,0,0.1,0,0.1,0c0.1-0.3,0.2-0.6,0.4-1c-0.2-0.1-0.3-0.1-0.5-0.2
				c0,0-0.1,0-0.1,0C24.1,40,24,40,24,40c0,0-0.1,0-0.1,0c-0.1,0-0.2-0.1-0.2-0.1c-0.1,0-0.2-0.1-0.3-0.1c-0.3-0.1-0.6-0.3-0.8-0.4
				c-0.4-0.2-0.7-0.4-1.1-0.6c-0.4-0.2-0.7-0.4-1-0.6c-0.3,0.5-0.4,0.9-0.5,1.4c0,0.3,0,0.6,0,0.9c0.1-0.4,0.2-0.8,0.5-1.2
				C20.8,39.4,21.1,39.6,21.5,39.8z"/>
			<path class="st1" d="M30.6,31.1c-1.3,0.5-2.5,1-3.7,1.6c-0.5,0.3-1,0.6-1.5,0.8c-0.5,0.3-0.9,0.6-1.3,0.9
				c-0.4,0.3-0.8,0.6-1.2,0.9c-0.4,0.3-0.7,0.6-1,0.9c0.2,0.2,0.4,0.4,0.7,0.5c0.1-0.1,0.2-0.2,0.3-0.3c0.4-0.3,0.7-0.6,1.2-0.9
				c0.4-0.3,0.9-0.6,1.3-0.9c0.5-0.3,1-0.6,1.5-0.8c1.2-0.6,2.5-1.2,3.7-1.6c1.3-0.5,2.5-0.9,3.8-1.2c0.1,0,0.1,0,0.1,0v-1.1
				c0,0-0.1,0-0.1,0C33.1,30.3,31.8,30.7,30.6,31.1z"/>
			<path class="st1" d="M30.9,38c-0.6,0.3-1.1,0.6-1.5,0.8c-0.5,0.3-0.9,0.6-1.2,0.9c-0.4,0.3-0.6,0.6-0.9,0.8
				c-0.2,0.3-0.4,0.5-0.6,0.8c0.2,0.1,0.5,0.1,0.7,0.2c0.2-0.2,0.5-0.4,0.7-0.7c0.4-0.3,0.8-0.6,1.2-0.9c0.5-0.3,1-0.6,1.5-0.8
				c0.7-0.4,1.4-0.7,2.2-1c0.5-0.2,1.1-0.4,1.5-0.5v-1.1c-0.4,0.2-1,0.3-1.5,0.5C32.3,37.4,31.6,37.7,30.9,38z"/>
			<path class="st1" d="M27.2,11.1c0.4-0.1,0.9-0.2,1.3-0.3c0.4-0.1,0.9-0.2,1.3-0.2c0.1,0.2,0.2,0.4,0.2,0.6
				c0.1,0.2,0.2,0.4,0.2,0.6c0.1,0.2,0.2,0.4,0.2,0.6c0.1,0.2,0.2,0.4,0.2,0.7c0,0.1,0,0.1,0.1,0.2c0.1,0,0.2,0,0.4-0.1
				c0-0.1-0.1-0.2-0.1-0.3c0-0.1-0.1-0.2-0.1-0.3c0-0.1-0.1-0.2-0.1-0.3c0-0.1-0.1-0.2-0.1-0.3c-0.1-0.2-0.2-0.5-0.2-0.7
				c-0.1-0.2-0.2-0.4-0.2-0.6c-0.1-0.2-0.2-0.4-0.2-0.6c-0.1-0.2-0.2-0.4-0.2-0.6c-0.4,0.1-0.9,0.1-1.3,0.2
				c-0.4,0.1-0.9,0.2-1.3,0.3c-0.4,0.1-0.9,0.2-1.3,0.3c-0.4,0.1-0.9,0.3-1.3,0.4c0.1,0.2,0.1,0.4,0.2,0.6c0,0.2,0.1,0.3,0.1,0.5
				c0.3-0.1,0.7-0.2,1-0.3C26.3,11.4,26.8,11.2,27.2,11.1z"/>
		</g>
	</g>
	<g>
		<path class="st2" d="M45.8,34.6c-3.3,6.3-9.9,10.7-17.5,10.7c-10.8,0-19.6-8.8-19.6-19.6S17.5,6,28.3,6c1.2,0,2.4,0.1,3.5,0.3
			c-1.7-0.5-3.5-0.7-5.4-0.7c-0.6,0-1.2,0-1.8,0.1l-4-5.7l-1.1,6.7C11.4,9.6,5.5,17.4,5.5,26.5c0,0.7,0,1.4,0.1,2L0,32.5l6.7,1.1
			c2.9,8.1,10.6,13.9,19.7,13.9c0.8,0,1.6,0,2.3-0.1l4,5.7l1.2-7C39.3,44,43.6,39.8,45.8,34.6z"/>
	</g>
</g>
<g>
	<text transform="matrix(1 0 0 1 48.2768 32.5457)" class="st2 st3 st4">Strategic Mission Elements</text>
</g>
</svg>
