<?xml version="1.0" encoding="utf-8"?>
<!-- Generator: Adobe Illustrator 23.0.2, SVG Export Plug-In . SVG Version: 6.00 Build 0)  -->
<svg version="1.1" id="Layer_1" xmlns="http://www.w3.org/2000/svg" xmlns:xlink="http://www.w3.org/1999/xlink" x="0px" y="0px"
	 viewBox="0 0 314.8 53.1" style="enable-background:new 0 0 314.8 53.1;" xml:space="preserve">
<style type="text/css">
	.st0{fill:#FFFFFF;}
	.st1{enable-background:new    ;}
</style>
<g>
	<path class="st0" d="M12.2,23.6c0.7-1.1,1.7-2.1,2.9-3.2s2.7-2.1,4.4-3.1c0.5-0.3,1-0.5,1.5-0.8s1-0.5,1.6-0.7
		c0.4-0.2,0.9-0.4,1.3-0.5v-0.1c0-0.1-0.1-0.2-0.1-0.3s-0.1-0.2-0.1-0.3s-0.1-0.2-0.1-0.3s-0.1-0.2-0.1-0.3
		c-0.1-0.2-0.1-0.5-0.2-0.7s-0.1-0.5-0.2-0.7S23,12.2,22.9,12c0-0.1-0.1-0.3-0.1-0.4c-0.4,0.2-0.8,0.3-1.2,0.5
		c-0.5,0.2-1,0.5-1.5,0.7s-1,0.5-1.4,0.8c-1.4,0.8-2.6,1.6-3.6,2.5c-1,0.9-1.9,1.8-2.6,2.7c-0.7,0.9-1.2,1.8-1.6,2.7
		c-0.4,0.9-0.5,1.7-0.6,2.5c0,0.2,0,0.3,0,0.5c0,0.1,0,0.1,0,0.1c0,0.1,0,0.2,0,0.3V25c0,0.1,0,0.2,0,0.3v0.1l0,0l0,0
		c0,0.6,0.1,1.2,0.2,2.5c0.1,0.4,0.2,0.9,0.3,1.3c-0.1-0.8-0.1-1.6,0.1-2.4C11.1,25.7,11.5,24.7,12.2,23.6z"/>
	<path class="st0" d="M16.7,27.7c1.2-1.1,2.7-2.2,4.5-3.3c-0.2-0.4-0.4-0.8-0.5-1.2c-0.1-0.3-0.3-0.6-0.4-0.9c0-0.1-0.1-0.2-0.1-0.3
		c-0.2-0.4-0.3-0.8-0.5-1.1c-0.1-0.4-0.3-0.8-0.4-1.1c-1.7,1-3.1,2.1-4.2,3.1c-1.1,1.1-2,2.1-2.7,3.2c-0.6,1-1,2-1.1,3
		c0,0.2,0,0.5-0.1,0.7c0,0.1,0,0.2,0,0.3c0,0.1,0,0.2,0,0.4l0,0c0,0.4,0.2,0.9,0.3,1.3c0.2,0.6,0.6,1.3,0.8,1.8
		c0.5,0.9,0.5,1,1.5,2.4c-0.4-0.6-0.6-1.4-0.7-2.1c0-0.9,0.2-1.9,0.8-2.9C14.7,29.9,15.6,28.8,16.7,27.7z"/>
	<path class="st0" d="M20.8,34c-0.3-0.3-0.6-0.7-0.9-1c-0.1-0.1-0.1-0.2-0.2-0.2c-0.2-0.2-0.4-0.5-0.6-0.7s-0.4-0.5-0.6-0.7
		c-0.1-0.1-0.1-0.2-0.2-0.3c-0.3-0.3-0.5-0.7-0.8-1c-0.8,0.8-1.5,1.6-2,2.4c-0.5,0.8-0.8,1.5-0.9,2.2c0,0.2-0.1,0.4-0.1,0.6
		c0,0.1,0,0.1,0,0.2c0,0.2,0,0.4,0,0.5c0,0,0,0,0,0.1l0,0c0,0.2,0.1,0.4,0.1,0.5c0.2,0.6,0.5,1.1,1,1.6c0.4,0.4,0.9,0.8,1.2,1.2
		c1,0.8,1.3,1,2.5,1.8c-0.7-0.5-1.1-1-1.3-1.6c-0.2-0.8-0.1-1.6,0.3-2.5C19,36,19.7,35,20.8,34z"/>
	<path class="st0" d="M34.5,23.3v-1.1c-0.4,0.1-1.1,0.2-1.7,0.3c-1.7,0.4-3.4,0.9-5,1.5c-1.7,0.6-3.3,1.3-4.9,2.2
		c-0.2,0.1-0.4,0.2-0.5,0.3c-0.2,0.1-0.4,0.2-0.5,0.3c-0.2,0.1-0.3,0.2-0.5,0.3c-0.2,0.1-0.3,0.2-0.5,0.3c0,0.1,0.1,0.1,0.1,0.2
		c0.1,0.2,0.3,0.4,0.4,0.7l0,0c0.1,0.1,0.1,0.2,0.2,0.3c0.2,0.4,0.5,0.7,0.7,1.1s0.5,0.7,0.7,1.1l0.1,0.1c0.2,0.3,0.5,0.7,0.7,1
		c0.6-0.3,1.2-0.7,1.8-1c1.3-0.7,2.7-1.3,4.2-1.8c1.4-0.5,2.8-1,4.2-1.3c0.2,0,0.4-0.1,0.6-0.1v-4.4H34.5z"/>
	<path class="st0" d="M27.3,43.8l-0.5-0.1h0.1C27,43.8,27.2,43.8,27.3,43.8z"/>
	<path class="st0" d="M19.9,40.2c0,0.1,0,0.1,0,0.2l0,0c0,0.1,0,0.2,0.1,0.3c0.1,0.4,0.4,0.7,0.7,1c0.3,0.3,0.7,0.5,1.2,0.8
		c0.4,0.2,0.9,0.4,1.3,0.5c1.3,0.4,1.6,0.5,3,0.8l0.5,0.1c-0.1,0-0.2,0-0.3-0.1c-0.1,0-0.2-0.1-0.4-0.1c-0.1,0-0.2-0.1-0.3-0.1
		c-0.4-0.1-0.7-0.3-1-0.5s-0.4-0.5-0.5-0.7c-0.1-0.3-0.1-0.6,0-0.9c0-0.1,0.1-0.2,0.1-0.4c0-0.1,0-0.1,0.1-0.2
		c0.1-0.2,0.2-0.3,0.3-0.5c-0.2-0.1-0.3-0.1-0.5-0.2h-0.1C24.1,40,24,40,24,40h-0.1c-0.1,0-0.2-0.1-0.2-0.1c-0.1,0-0.2-0.1-0.3-0.1
		c-0.3-0.1-0.6-0.3-0.8-0.4c-0.4-0.2-0.7-0.4-1.1-0.6c-0.4-0.2-0.7-0.4-1-0.6c-0.3,0.5-0.4,0.9-0.5,1.4c0,0.2,0,0.4,0,0.6
		C19.9,40.1,19.9,40.1,19.9,40.2z"/>
	<path class="st0" d="M34.5,31v-1.1h-0.1c-1.3,0.3-2.6,0.7-3.8,1.2c-1.3,0.5-2.5,1-3.7,1.6c-0.5,0.3-1,0.6-1.5,0.8
		c-0.5,0.3-0.9,0.6-1.3,0.9c-0.4,0.3-0.8,0.6-1.2,0.9c-0.4,0.3-0.7,0.6-1,0.9c0,0,0,0,0.1,0.1c0.2,0.2,0.4,0.3,0.6,0.5l0,0
		c0.1,0.1,0.2,0.2,0.3,0.2c0.3,0.2,0.7,0.5,1,0.7s0.7,0.5,1,0.7c0.1,0,0.1,0.1,0.2,0.1c0.3,0.2,0.6,0.3,0.8,0.5
		c0.2-0.2,0.4-0.4,0.7-0.6c0.4-0.3,0.9-0.6,1.4-1c0.5-0.3,1.1-0.6,1.7-0.9c0.9-0.4,1.7-0.8,2.7-1.2c0.8-0.3,1.7-0.5,2.2-0.7V31H34.5
		z"/>
	<path class="st0" d="M32.6,43.3c-0.6,0.1-1.4-0.2-1.3-0.8c-0.1,0-1,0.1-1.7,0c-1.3,0-2.4-0.1-3.2-0.3
		C26.4,44.5,31.3,43.8,32.6,43.3z"/>
	<path class="st0" d="M34.5,40.1C34.5,40.1,34.5,40,34.5,40.1v-2.4v-1.1c-0.4,0.2-1,0.3-1.5,0.5c-0.8,0.3-1.5,0.6-2.2,1
		c-0.6,0.3-1,0.6-1.5,0.8c-0.5,0.3-0.9,0.6-1.2,0.9c-0.4,0.3-0.6,0.6-0.9,0.8c-0.2,0.3-0.4,0.5-0.6,0.8l0,0c0.2,0.1,0.5,0.1,0.7,0.2
		l0,0c0.1,0,0.3,0.1,0.4,0.1c0.4,0.1,0.8,0.1,1.2,0.2c0.4,0.1,0.8,0.1,1.2,0.1c0.4,0,0.8,0.1,1.2,0.1l0,0c0.1-0.2,0.2-0.3,0.4-0.5
		c0.2-0.2,0.4-0.3,0.7-0.5s0.6-0.3,0.9-0.5C33.8,40.3,34.1,40.2,34.5,40.1z"/>
	<path class="st0" d="M23.8,31.9L23.8,31.9L23.8,31.9L23.8,31.9z"/>
	<path class="st0" d="M24.5,17.3c0.1,0.4,0.3,0.8,0.4,1.2c0.1,0.4,0.3,0.8,0.4,1.2c0.1,0.4,0.3,0.8,0.4,1.2c0.1,0.4,0.3,0.8,0.5,1.2
		l0,0l0,0c0.2-0.1,0.6-0.2,0.9-0.3c1.8-0.6,3.5-1.2,5.2-1.5c0.8-0.2,1.6-0.3,2.2-0.4V16v-1.1c-0.4,0-0.8,0.1-1.3,0.1
		c-1.4,0.2-2.9,0.5-4.4,0.9C27.4,16.3,25.9,16.7,24.5,17.3z"/>
	<path class="st0" d="M24.9,11.8c0,0.1,0,0.1,0,0.2c0.1,0.2,0.1,0.4,0.2,0.7c0.1,0.2,0.1,0.5,0.2,0.7c0,0.1,0.1,0.2,0.1,0.3
		s0.1,0.2,0.1,0.3s0.1,0.2,0.1,0.3s0.1,0.2,0.1,0.3c0.5-0.2,0.9-0.3,1.4-0.4c0.5-0.1,0.9-0.3,1.4-0.4c0.5-0.1,0.9-0.2,1.4-0.3
		s0.9-0.2,1.4-0.3c0-0.1-0.1-0.2-0.1-0.3s-0.1-0.2-0.1-0.3S31,12.4,31,12.3s-0.1-0.2-0.1-0.3c-0.1-0.2-0.2-0.5-0.2-0.7
		c-0.1-0.2-0.2-0.4-0.2-0.6c-0.1-0.2-0.2-0.4-0.2-0.6c-0.1-0.2-0.2-0.4-0.2-0.6c-0.4,0.1-0.9,0.1-1.3,0.2c-0.4,0.1-0.9,0.2-1.3,0.3
		s-0.9,0.2-1.3,0.3s-0.9,0.3-1.3,0.4c0.1,0.2,0.1,0.4,0.2,0.6C24.8,11.5,24.8,11.6,24.9,11.8L24.9,11.8z"/>
	<path class="st0" d="M28.3,45.2c-10.8,0-19.6-8.8-19.6-19.6S17.5,6,28.3,6c1.2,0,2.4,0.1,3.5,0.3c-1.7-0.5-3.5-0.7-5.4-0.7
		c-0.6,0-1.2,0-1.8,0.1l-4-5.7l-1.1,6.7c-8.1,2.9-14,10.7-14,19.8c0,0.7,0,1.4,0.1,2l-5.6,4l6.7,1.1c2.9,8.1,10.6,13.9,19.7,13.9
		c0.8,0,1.6,0,2.3-0.1l4,5.7l1.2-7c5.3-2.1,9.6-6.3,11.8-11.5C42.6,40.9,36,45.2,28.3,45.2z"/>
</g>
<g>
	<g class="st1">
		<path class="st0" d="M52.4,27.6c0,0.4,0,0.8,0.1,1.1c0.1,0.3,0.2,0.6,0.4,0.9c0.2,0.2,0.4,0.4,0.7,0.5c0.3,0.1,0.7,0.2,1.1,0.2
			c0.5,0,1-0.2,1.5-0.5c0.4-0.4,0.7-0.9,0.7-1.6c0-0.4-0.1-0.7-0.2-1s-0.3-0.5-0.5-0.8s-0.6-0.4-1-0.6c-0.4-0.2-0.9-0.4-1.5-0.6
			c-0.8-0.3-1.5-0.6-2-0.9c-0.6-0.3-1.1-0.7-1.4-1.1c-0.4-0.4-0.7-0.9-0.9-1.5c-0.2-0.6-0.3-1.2-0.3-1.9c0-1.7,0.5-3,1.5-3.9
			c1-0.9,2.3-1.3,4-1.3c0.8,0,1.5,0.1,2.2,0.3c0.7,0.2,1.2,0.5,1.7,0.8c0.5,0.4,0.9,0.9,1.1,1.5c0.3,0.6,0.4,1.3,0.4,2.2v0.5h-3.4
			c0-0.8-0.1-1.5-0.4-1.9c-0.3-0.5-0.8-0.7-1.5-0.7c-0.4,0-0.7,0.1-1,0.2c-0.3,0.1-0.5,0.3-0.6,0.5c-0.2,0.2-0.3,0.4-0.3,0.7
			c-0.1,0.2-0.1,0.5-0.1,0.8c0,0.5,0.1,1,0.3,1.4c0.2,0.4,0.7,0.7,1.5,1l2.7,1.2c0.7,0.3,1.2,0.6,1.7,0.9c0.4,0.3,0.8,0.7,1,1
			s0.4,0.8,0.5,1.2s0.1,0.9,0.1,1.5c0,1.9-0.5,3.2-1.6,4.1c-1.1,0.8-2.6,1.3-4.5,1.3c-2,0-3.4-0.4-4.3-1.3c-0.9-0.9-1.3-2.1-1.3-3.8
			V27h3.6V27.6z"/>
		<path class="st0" d="M66.4,15.5v3.8h2v2.3h-2v7.2c0,0.5,0.1,0.9,0.2,1.1s0.5,0.3,1,0.3c0.1,0,0.3,0,0.4,0c0.1,0,0.3,0,0.4,0v2.4
			c-0.4,0-0.7,0-1.1,0c-0.4,0-0.7,0-1.1,0c-0.7,0-1.2,0-1.6-0.1c-0.4-0.1-0.7-0.3-1-0.5c-0.2-0.3-0.4-0.6-0.5-1.1
			c-0.1-0.4-0.1-1-0.1-1.7v-7.6h-1.7v-2.3H63v-3.8H66.4z"/>
		<path class="st0" d="M72.8,19.3V21h0c0.3-0.6,0.8-1.2,1.3-1.5c0.5-0.4,1.1-0.6,1.8-0.6c0.1,0,0.2,0,0.3,0c0.1,0,0.2,0,0.3,0v3.3
			c-0.2,0-0.4,0-0.5,0c-0.2,0-0.3,0-0.5,0c-0.3,0-0.6,0-0.9,0.1c-0.3,0.1-0.6,0.2-0.8,0.4c-0.2,0.2-0.4,0.4-0.6,0.7
			c-0.1,0.3-0.2,0.7-0.2,1.1v8h-3.4V19.3H72.8z"/>
		<path class="st0" d="M77.7,23c0-0.8,0.1-1.4,0.4-1.9c0.2-0.5,0.6-0.9,1-1.3c0.4-0.3,0.9-0.6,1.5-0.7s1.2-0.2,1.8-0.2
			c1,0,1.8,0.1,2.5,0.3c0.6,0.2,1.1,0.5,1.5,0.8c0.3,0.4,0.6,0.8,0.7,1.3c0.1,0.5,0.2,1,0.2,1.6v7c0,0.6,0,1.1,0.1,1.5
			c0.1,0.3,0.2,0.7,0.3,1.1h-3.3c-0.1-0.2-0.2-0.4-0.3-0.7c-0.1-0.2-0.1-0.5-0.2-0.7h0c-0.4,0.7-0.9,1.1-1.4,1.3
			c-0.5,0.2-1.2,0.3-2,0.3c-0.6,0-1.1-0.1-1.5-0.3c-0.4-0.2-0.7-0.5-1-0.9c-0.2-0.4-0.4-0.8-0.5-1.2c-0.1-0.5-0.2-0.9-0.2-1.3
			c0-0.6,0.1-1.2,0.2-1.6c0.1-0.5,0.3-0.8,0.6-1.2c0.3-0.3,0.6-0.6,1-0.8s0.9-0.4,1.5-0.6l1.9-0.5c0.5-0.1,0.9-0.3,1.1-0.5
			s0.3-0.6,0.3-1c0-0.5-0.1-0.9-0.4-1.2c-0.2-0.3-0.6-0.4-1.2-0.4c-0.5,0-0.9,0.2-1.2,0.5c-0.3,0.3-0.4,0.7-0.4,1.3v0.4h-3.1V23z
			 M83.2,26.3c-0.3,0.1-0.5,0.2-0.7,0.2c-0.7,0.1-1.2,0.4-1.5,0.7c-0.3,0.3-0.4,0.8-0.4,1.4c0,0.5,0.1,0.9,0.3,1.3
			c0.2,0.4,0.5,0.5,1,0.5c0.2,0,0.5,0,0.7-0.1c0.2-0.1,0.5-0.2,0.7-0.4s0.4-0.4,0.5-0.6c0.1-0.3,0.2-0.6,0.2-0.9v-2.6
			C83.7,26.1,83.5,26.2,83.2,26.3z"/>
		<path class="st0" d="M93.7,15.5v3.8h2v2.3h-2v7.2c0,0.5,0.1,0.9,0.2,1.1s0.5,0.3,1,0.3c0.1,0,0.3,0,0.4,0c0.1,0,0.3,0,0.4,0v2.4
			c-0.4,0-0.7,0-1.1,0c-0.4,0-0.7,0-1.1,0c-0.7,0-1.2,0-1.6-0.1c-0.4-0.1-0.7-0.3-1-0.5c-0.2-0.3-0.4-0.6-0.5-1.1
			c-0.1-0.4-0.1-1-0.1-1.7v-7.6h-1.7v-2.3h1.7v-3.8H93.7z"/>
		<path class="st0" d="M99.8,27.5c0,0.4,0,0.8,0.1,1.1c0.1,0.4,0.2,0.7,0.3,1c0.1,0.3,0.3,0.5,0.5,0.7c0.2,0.2,0.5,0.3,0.8,0.3
			c0.6,0,1-0.2,1.3-0.6c0.3-0.4,0.4-1,0.5-1.9h3.1c-0.1,1.5-0.5,2.7-1.2,3.5c-0.8,0.8-1.9,1.2-3.6,1.2c-1.2,0-2.2-0.2-2.9-0.6
			s-1.2-1-1.5-1.6s-0.5-1.4-0.6-2.3c-0.1-0.8-0.1-1.7-0.1-2.5c0-0.9,0.1-1.7,0.2-2.6c0.1-0.8,0.4-1.6,0.7-2.2
			c0.4-0.6,0.9-1.2,1.6-1.5c0.7-0.4,1.6-0.6,2.8-0.6c1,0,1.8,0.2,2.4,0.5c0.6,0.3,1.1,0.8,1.5,1.4s0.6,1.3,0.7,2.1
			c0.1,0.8,0.2,1.8,0.2,2.8v0.8h-6.7V27.5z M103.2,23.1c0-0.4-0.1-0.7-0.3-1c-0.1-0.3-0.3-0.5-0.5-0.6c-0.2-0.1-0.5-0.2-0.9-0.2
			c-0.3,0-0.6,0.1-0.9,0.2s-0.4,0.4-0.5,0.6c-0.1,0.3-0.2,0.5-0.3,0.9c-0.1,0.3-0.1,0.6-0.1,0.9v0.5h3.5
			C103.3,23.9,103.2,23.4,103.2,23.1z"/>
		<path class="st0" d="M118.3,31.9c0,1.7-0.4,3-1.3,3.8s-2.3,1.3-4.3,1.3c-1.4,0-2.6-0.3-3.3-0.9c-0.8-0.6-1.2-1.5-1.2-2.6h3.3
			c0,0.4,0.2,0.8,0.5,1c0.2,0.1,0.3,0.2,0.5,0.3c0.2,0.1,0.4,0.1,0.6,0.1c0.7,0,1.2-0.2,1.5-0.7c0.3-0.4,0.4-1,0.4-1.7v-1.8h0
			c-0.3,0.5-0.8,0.9-1.3,1.2c-0.5,0.3-1,0.4-1.6,0.4c-1.3,0-2.4-0.5-3-1.5c-0.7-1-1-2.8-1-5.2c0-0.8,0-1.6,0.1-2.4s0.3-1.5,0.6-2.2
			c0.3-0.6,0.7-1.2,1.3-1.6c0.6-0.4,1.3-0.6,2.2-0.6c0.5,0,1,0.1,1.5,0.4c0.5,0.3,0.9,0.7,1.3,1.4h0v-1.5h3.3V31.9z M111.5,27.6
			c0,0.4,0.1,0.8,0.2,1.1c0.1,0.3,0.3,0.6,0.5,0.8c0.2,0.2,0.5,0.3,0.9,0.3s0.7-0.1,0.9-0.3s0.4-0.4,0.6-0.8
			c0.1-0.3,0.2-0.7,0.3-1.2s0.1-1,0.1-1.5c0-1.6-0.1-2.8-0.4-3.4c-0.3-0.7-0.7-1-1.4-1c-0.4,0-0.7,0.1-0.9,0.2
			c-0.2,0.2-0.4,0.4-0.5,0.8s-0.2,0.9-0.3,1.5c0,0.6-0.1,1.4-0.1,2.3C111.5,26.8,111.5,27.2,111.5,27.6z"/>
		<path class="st0" d="M124.2,14.7v2.9h-3.4v-2.9H124.2z M124.2,19.3v13.3h-3.4V19.3H124.2z"/>
		<path class="st0" d="M132.9,23.1c0-0.3-0.1-0.6-0.2-0.9s-0.3-0.5-0.5-0.6c-0.2-0.2-0.5-0.2-0.8-0.2c-0.4,0-0.7,0.1-1,0.3
			c-0.3,0.2-0.5,0.5-0.6,0.8c-0.1,0.4-0.2,0.8-0.3,1.4s-0.1,1.2-0.1,2c0,0.8,0,1.5,0.1,2.1c0,0.6,0.1,1.1,0.3,1.4
			c0.1,0.4,0.3,0.7,0.6,0.8c0.2,0.2,0.5,0.3,0.9,0.3c0.6,0,1-0.2,1.3-0.7c0.3-0.5,0.4-1.3,0.4-2.4h3.3c0,1.7-0.4,3.1-1.2,4
			s-2.1,1.4-3.9,1.4c-0.9,0-1.6-0.1-2.2-0.3c-0.6-0.2-1.2-0.6-1.6-1.1c-0.4-0.5-0.7-1.2-0.9-2.1c-0.2-0.9-0.3-2-0.3-3.3
			c0-1.4,0.1-2.5,0.4-3.4s0.6-1.6,1.1-2.1s1-0.9,1.7-1.1c0.7-0.2,1.4-0.3,2.2-0.3c1.6,0,2.8,0.5,3.6,1.4c0.8,0.9,1.2,2.2,1.2,3.8
			H133C133,23.7,133,23.4,132.9,23.1z"/>
		<path class="st0" d="M149.4,14.9l2.5,12.4h0l2.5-12.4h5.3v17.6h-3.3V18.5h0l-3.1,14.1h-2.8l-3.1-14.1h0v14.1h-3.3V14.9H149.4z"/>
		<path class="st0" d="M165.7,14.7v2.9h-3.4v-2.9H165.7z M165.7,19.3v13.3h-3.4V19.3H165.7z"/>
		<path class="st0" d="M170.6,28.6c0,0.6,0.2,1,0.5,1.4c0.3,0.4,0.7,0.5,1.3,0.5c0.5,0,0.9-0.1,1.3-0.4c0.3-0.3,0.5-0.7,0.5-1.2
			c0-0.4-0.1-0.8-0.4-1c-0.2-0.2-0.5-0.4-0.9-0.5l-2.4-0.9c-0.9-0.3-1.6-0.8-2.1-1.4c-0.5-0.6-0.7-1.4-0.7-2.3
			c0-0.5,0.1-1.1,0.3-1.5s0.5-0.9,0.9-1.3c0.4-0.4,0.9-0.7,1.5-0.9c0.6-0.2,1.4-0.3,2.2-0.3c1.5,0,2.7,0.3,3.4,1
			c0.7,0.7,1.1,1.6,1.1,2.8v0.5H174c0-0.7-0.1-1.2-0.3-1.5c-0.2-0.3-0.6-0.5-1.2-0.5c-0.4,0-0.8,0.1-1.1,0.4s-0.5,0.6-0.5,1.1
			c0,0.3,0.1,0.6,0.3,0.9c0.2,0.3,0.6,0.5,1.2,0.7l2,0.7c1.1,0.4,1.8,0.8,2.3,1.4c0.4,0.6,0.7,1.4,0.7,2.4c0,0.7-0.1,1.3-0.4,1.8
			c-0.2,0.5-0.6,1-1,1.3c-0.4,0.3-1,0.6-1.6,0.7c-0.6,0.1-1.3,0.2-2,0.2c-1,0-1.7-0.1-2.4-0.3c-0.6-0.2-1.1-0.5-1.5-0.8
			c-0.4-0.4-0.6-0.8-0.8-1.3c-0.1-0.5-0.2-1.1-0.2-1.7v-0.5h3.1V28.6z"/>
		<path class="st0" d="M181.6,28.6c0,0.6,0.2,1,0.5,1.4c0.3,0.4,0.7,0.5,1.3,0.5c0.5,0,0.9-0.1,1.3-0.4c0.3-0.3,0.5-0.7,0.5-1.2
			c0-0.4-0.1-0.8-0.4-1c-0.2-0.2-0.5-0.4-0.9-0.5l-2.4-0.9c-0.9-0.3-1.6-0.8-2.1-1.4c-0.5-0.6-0.7-1.4-0.7-2.3
			c0-0.5,0.1-1.1,0.3-1.5s0.5-0.9,0.9-1.3c0.4-0.4,0.9-0.7,1.5-0.9c0.6-0.2,1.4-0.3,2.2-0.3c1.5,0,2.7,0.3,3.4,1
			c0.7,0.7,1.1,1.6,1.1,2.8v0.5H185c0-0.7-0.1-1.2-0.3-1.5c-0.2-0.3-0.6-0.5-1.2-0.5c-0.4,0-0.8,0.1-1.1,0.4s-0.5,0.6-0.5,1.1
			c0,0.3,0.1,0.6,0.3,0.9c0.2,0.3,0.6,0.5,1.2,0.7l2,0.7c1.1,0.4,1.8,0.8,2.3,1.4c0.4,0.6,0.7,1.4,0.7,2.4c0,0.7-0.1,1.3-0.4,1.8
			c-0.2,0.5-0.6,1-1,1.3c-0.4,0.3-1,0.6-1.6,0.7c-0.6,0.1-1.3,0.2-2,0.2c-1,0-1.7-0.1-2.4-0.3c-0.6-0.2-1.1-0.5-1.5-0.8
			c-0.4-0.4-0.6-0.8-0.8-1.3c-0.1-0.5-0.2-1.1-0.2-1.7v-0.5h3.1V28.6z"/>
		<path class="st0" d="M193.5,14.7v2.9h-3.4v-2.9H193.5z M193.5,19.3v13.3h-3.4V19.3H193.5z"/>
		<path class="st0" d="M195.8,22.9c0.2-0.9,0.5-1.6,0.9-2.2c0.4-0.6,0.9-1,1.6-1.3c0.7-0.3,1.5-0.5,2.5-0.5c1,0,1.9,0.1,2.5,0.4
			c0.7,0.3,1.2,0.7,1.6,1.3c0.4,0.6,0.7,1.3,0.8,2.2c0.2,0.9,0.2,1.9,0.2,3.1c0,1.1-0.1,2.1-0.3,3c-0.2,0.9-0.5,1.6-0.9,2.2
			s-1,1-1.6,1.3c-0.7,0.3-1.5,0.4-2.5,0.4c-1,0-1.9-0.1-2.5-0.4c-0.7-0.3-1.2-0.7-1.6-1.3s-0.7-1.3-0.8-2.2c-0.2-0.9-0.2-1.9-0.2-3
			C195.5,24.8,195.6,23.8,195.8,22.9z M198.9,27.8c0,0.6,0.1,1.1,0.2,1.5c0.1,0.4,0.3,0.7,0.6,1c0.2,0.2,0.6,0.3,1,0.3
			c0.7,0,1.2-0.4,1.4-1.1c0.3-0.7,0.4-1.9,0.4-3.6s-0.1-2.9-0.4-3.6c-0.3-0.7-0.7-1.1-1.4-1.1c-0.4,0-0.7,0.1-1,0.3
			c-0.2,0.2-0.4,0.6-0.6,1c-0.1,0.4-0.2,0.9-0.2,1.5c0,0.6,0,1.2,0,1.9S198.9,27.2,198.9,27.8z"/>
		<path class="st0" d="M211,19.3v1.6h0c0.4-0.7,0.8-1.1,1.4-1.4c0.6-0.3,1.2-0.5,2-0.5c1.1,0,1.9,0.3,2.5,0.9
			c0.6,0.6,0.9,1.6,0.9,2.9v9.8h-3.4v-9.2c0-0.7-0.1-1.2-0.3-1.4c-0.2-0.3-0.6-0.4-1.1-0.4c-1.2,0-1.8,0.7-1.8,2.2v8.8h-3.4V19.3
			H211z"/>
		<path class="st0" d="M236,17.8h-6.3V22h5.9v2.9h-5.9v4.7h6.5v2.9h-10.1V14.9h9.8V17.8z"/>
		<path class="st0" d="M241.4,14.9v17.6H238V14.9H241.4z"/>
		<path class="st0" d="M246.7,27.5c0,0.4,0,0.8,0.1,1.1s0.2,0.7,0.3,1c0.1,0.3,0.3,0.5,0.5,0.7c0.2,0.2,0.5,0.3,0.8,0.3
			c0.6,0,1-0.2,1.3-0.6s0.4-1,0.5-1.9h3.1c-0.1,1.5-0.5,2.7-1.2,3.5c-0.8,0.8-1.9,1.2-3.6,1.2c-1.2,0-2.2-0.2-2.9-0.6
			c-0.7-0.4-1.2-1-1.5-1.6s-0.5-1.4-0.6-2.3s-0.1-1.7-0.1-2.5c0-0.9,0.1-1.7,0.2-2.6c0.1-0.8,0.4-1.6,0.7-2.2
			c0.4-0.6,0.9-1.2,1.6-1.5c0.7-0.4,1.6-0.6,2.8-0.6c1,0,1.8,0.2,2.4,0.5c0.6,0.3,1.1,0.8,1.5,1.4c0.4,0.6,0.6,1.3,0.7,2.1
			c0.1,0.8,0.2,1.8,0.2,2.8v0.8h-6.7V27.5z M250.1,23.1c0-0.4-0.1-0.7-0.3-1c-0.1-0.3-0.3-0.5-0.5-0.6s-0.5-0.2-0.9-0.2
			c-0.3,0-0.6,0.1-0.9,0.2c-0.2,0.2-0.4,0.4-0.5,0.6c-0.1,0.3-0.2,0.5-0.3,0.9s-0.1,0.6-0.1,0.9v0.5h3.5
			C250.2,23.9,250.2,23.4,250.1,23.1z"/>
		<path class="st0" d="M258.5,19.3v1.4h0c0.4-0.6,0.9-1,1.4-1.3c0.5-0.3,1.2-0.4,1.9-0.4c0.8,0,1.5,0.2,2,0.5
			c0.5,0.4,0.9,0.9,1.1,1.6h0c0.3-0.7,0.7-1.2,1.3-1.6s1.3-0.5,2.1-0.5c1.1,0,2,0.3,2.5,1c0.5,0.7,0.8,1.7,0.8,2.9v9.6h-3.4v-9.3
			c0-0.6-0.1-1-0.3-1.3c-0.2-0.3-0.5-0.4-1-0.4c-0.5,0-1,0.2-1.3,0.5s-0.5,0.9-0.5,1.7v8.7h-3.4v-9.3c0-0.6-0.1-1-0.3-1.3
			c-0.2-0.3-0.5-0.4-1-0.4c-0.5,0-1,0.2-1.3,0.5c-0.3,0.4-0.5,0.9-0.5,1.7v8.7h-3.4V19.3H258.5z"/>
		<path class="st0" d="M276.9,27.5c0,0.4,0,0.8,0.1,1.1s0.2,0.7,0.3,1c0.1,0.3,0.3,0.5,0.5,0.7c0.2,0.2,0.5,0.3,0.8,0.3
			c0.6,0,1-0.2,1.3-0.6s0.4-1,0.5-1.9h3.1c-0.1,1.5-0.5,2.7-1.2,3.5c-0.8,0.8-1.9,1.2-3.6,1.2c-1.2,0-2.2-0.2-2.9-0.6
			c-0.7-0.4-1.2-1-1.5-1.6s-0.5-1.4-0.6-2.3s-0.1-1.7-0.1-2.5c0-0.9,0.1-1.7,0.2-2.6c0.1-0.8,0.4-1.6,0.7-2.2
			c0.4-0.6,0.9-1.2,1.6-1.5c0.7-0.4,1.6-0.6,2.8-0.6c1,0,1.8,0.2,2.4,0.5c0.6,0.3,1.1,0.8,1.5,1.4c0.4,0.6,0.6,1.3,0.7,2.1
			c0.1,0.8,0.2,1.8,0.2,2.8v0.8h-6.7V27.5z M280.2,23.1c0-0.4-0.1-0.7-0.3-1c-0.1-0.3-0.3-0.5-0.5-0.6s-0.5-0.2-0.9-0.2
			c-0.3,0-0.6,0.1-0.9,0.2c-0.2,0.2-0.4,0.4-0.5,0.6c-0.1,0.3-0.2,0.5-0.3,0.9s-0.1,0.6-0.1,0.9v0.5h3.5
			C280.3,23.9,280.3,23.4,280.2,23.1z"/>
		<path class="st0" d="M288.6,19.3v1.6h0c0.4-0.7,0.8-1.1,1.4-1.4c0.6-0.3,1.2-0.5,2-0.5c1.1,0,1.9,0.3,2.5,0.9
			c0.6,0.6,0.9,1.6,0.9,2.9v9.8H292v-9.2c0-0.7-0.1-1.2-0.3-1.4c-0.2-0.3-0.6-0.4-1.1-0.4c-1.2,0-1.8,0.7-1.8,2.2v8.8h-3.4V19.3
			H288.6z"/>
		<path class="st0" d="M301.9,15.5v3.8h2v2.3h-2v7.2c0,0.5,0.1,0.9,0.2,1.1s0.5,0.3,1,0.3c0.1,0,0.3,0,0.4,0c0.1,0,0.3,0,0.4,0v2.4
			c-0.4,0-0.7,0-1.1,0c-0.4,0-0.7,0-1.1,0c-0.7,0-1.2,0-1.6-0.1c-0.4-0.1-0.7-0.3-1-0.5s-0.4-0.6-0.5-1.1c-0.1-0.4-0.1-1-0.1-1.7
			v-7.6h-1.7v-2.3h1.7v-3.8H301.9z"/>
		<path class="st0" d="M307.5,28.6c0,0.6,0.2,1,0.5,1.4c0.3,0.4,0.7,0.5,1.3,0.5c0.5,0,0.9-0.1,1.3-0.4c0.3-0.3,0.5-0.7,0.5-1.2
			c0-0.4-0.1-0.8-0.4-1c-0.2-0.2-0.5-0.4-0.9-0.5l-2.4-0.9c-0.9-0.3-1.6-0.8-2.1-1.4c-0.5-0.6-0.7-1.4-0.7-2.3
			c0-0.5,0.1-1.1,0.3-1.5s0.5-0.9,0.9-1.3c0.4-0.4,0.9-0.7,1.5-0.9c0.6-0.2,1.4-0.3,2.2-0.3c1.5,0,2.7,0.3,3.4,1
			c0.7,0.7,1.1,1.6,1.1,2.8v0.5h-3.1c0-0.7-0.1-1.2-0.3-1.5c-0.2-0.3-0.6-0.5-1.2-0.5c-0.4,0-0.8,0.1-1.1,0.4s-0.5,0.6-0.5,1.1
			c0,0.3,0.1,0.6,0.3,0.9c0.2,0.3,0.6,0.5,1.2,0.7l2,0.7c1.1,0.4,1.8,0.8,2.3,1.4c0.4,0.6,0.7,1.4,0.7,2.4c0,0.7-0.1,1.3-0.4,1.8
			c-0.2,0.5-0.6,1-1,1.3c-0.4,0.3-1,0.6-1.6,0.7c-0.6,0.1-1.3,0.2-2,0.2c-1,0-1.7-0.1-2.4-0.3c-0.6-0.2-1.1-0.5-1.5-0.8
			c-0.4-0.4-0.6-0.8-0.8-1.3c-0.1-0.5-0.2-1.1-0.2-1.7v-0.5h3.1V28.6z"/>
	</g>
</g>
</svg>
