<?xml version="1.0" encoding="utf-8"?>
<!-- Generator: Adobe Illustrator 23.0.2, SVG Export Plug-In . SVG Version: 6.00 Build 0)  -->
<svg version="1.1" id="Layer_1" xmlns="http://www.w3.org/2000/svg" xmlns:xlink="http://www.w3.org/1999/xlink" x="0px" y="0px"
	 viewBox="0 0 314.8 53.1" style="enable-background:new 0 0 314.8 53.1;" xml:space="preserve">
<style type="text/css">
	.st0{fill:#FFFFFF;}
	.st1{font-family:'HelveticaNeue-CondensedBold';}
	.st2{font-size:24.6725px;}
</style>
<g>
	<path class="st0" d="M12.2,23.6c0.7-1.1,1.7-2.1,2.9-3.2c1.2-1.1,2.7-2.1,4.4-3.1c0.5-0.3,1-0.5,1.5-0.8c0.5-0.3,1-0.5,1.6-0.7
		c0.4-0.2,0.9-0.4,1.3-0.5l0-0.1c0-0.1-0.1-0.2-0.1-0.3c0-0.1-0.1-0.2-0.1-0.3c0-0.1-0.1-0.2-0.1-0.3c0-0.1-0.1-0.2-0.1-0.3
		c-0.1-0.2-0.1-0.5-0.2-0.7c-0.1-0.2-0.1-0.5-0.2-0.7c-0.1-0.2-0.1-0.4-0.2-0.6c0-0.1-0.1-0.3-0.1-0.4c-0.4,0.2-0.8,0.3-1.2,0.5
		c-0.5,0.2-1,0.5-1.5,0.7c-0.5,0.2-1,0.5-1.4,0.8c-1.4,0.8-2.6,1.6-3.6,2.5c-1,0.9-1.9,1.8-2.6,2.7c-0.7,0.9-1.2,1.8-1.6,2.7
		c-0.4,0.9-0.5,1.7-0.6,2.5c0,0.2,0,0.3,0,0.5c0,0.1,0,0.1,0,0.1c0,0.1,0,0.2,0,0.3c0,0,0,0.1,0,0.1c0,0.1,0,0.2,0,0.3
		c0,0,0,0.1,0,0.1c0,0,0,0,0,0c0,0,0,0,0,0c0,0.6,0.1,1.2,0.2,2.5c0.1,0.4,0.2,0.9,0.3,1.3c-0.1-0.8-0.1-1.6,0.1-2.4
		C11.1,25.7,11.5,24.7,12.2,23.6z"/>
	<path class="st0" d="M16.7,27.7c1.2-1.1,2.7-2.2,4.5-3.3c-0.2-0.4-0.4-0.8-0.5-1.2c-0.1-0.3-0.3-0.6-0.4-0.9c0-0.1-0.1-0.2-0.1-0.3
		c-0.2-0.4-0.3-0.8-0.5-1.1c-0.1-0.4-0.3-0.8-0.4-1.1c-1.7,1-3.1,2.1-4.2,3.1c-1.1,1.1-2,2.1-2.7,3.2c-0.6,1-1,2-1.1,3
		c0,0.2,0,0.5-0.1,0.7c0,0.1,0,0.2,0,0.3c0,0.1,0,0.2,0,0.4c0,0,0,0,0,0c0,0.4,0.2,0.9,0.3,1.3c0.2,0.6,0.6,1.3,0.8,1.8
		c0.5,0.9,0.5,1,1.5,2.4c-0.4-0.6-0.6-1.4-0.7-2.1c0-0.9,0.2-1.9,0.8-2.9C14.7,29.9,15.6,28.8,16.7,27.7z"/>
	<path class="st0" d="M20.8,34c-0.3-0.3-0.6-0.7-0.9-1c-0.1-0.1-0.1-0.2-0.2-0.2c-0.2-0.2-0.4-0.5-0.6-0.7c-0.2-0.2-0.4-0.5-0.6-0.7
		c-0.1-0.1-0.1-0.2-0.2-0.3c-0.3-0.3-0.5-0.7-0.8-1c-0.8,0.8-1.5,1.6-2,2.4c-0.5,0.8-0.8,1.5-0.9,2.2c0,0.2-0.1,0.4-0.1,0.6
		c0,0.1,0,0.1,0,0.2c0,0.2,0,0.4,0,0.5c0,0,0,0,0,0.1c0,0,0,0,0,0c0,0.2,0.1,0.4,0.1,0.5c0.2,0.6,0.5,1.1,1,1.6
		c0.4,0.4,0.9,0.8,1.2,1.2c1,0.8,1.3,1,2.5,1.8c-0.7-0.5-1.1-1-1.3-1.6c-0.2-0.8-0.1-1.6,0.3-2.5C19,36,19.7,35,20.8,34z"/>
	<path class="st0" d="M34.5,23.3v-1.1c-0.4,0.1-1.1,0.2-1.7,0.3c-1.7,0.4-3.4,0.9-5,1.5c-1.7,0.6-3.3,1.3-4.9,2.2
		c-0.2,0.1-0.4,0.2-0.5,0.3c-0.2,0.1-0.4,0.2-0.5,0.3c-0.2,0.1-0.3,0.2-0.5,0.3c-0.2,0.1-0.3,0.2-0.5,0.3c0,0.1,0.1,0.1,0.1,0.2
		c0.1,0.2,0.3,0.4,0.4,0.7c0,0,0,0,0,0c0.1,0.1,0.1,0.2,0.2,0.3c0.2,0.4,0.5,0.7,0.7,1.1c0.2,0.4,0.5,0.7,0.7,1.1
		c0,0,0.1,0.1,0.1,0.1c0.2,0.3,0.5,0.7,0.7,1c0.6-0.3,1.2-0.7,1.8-1c1.3-0.7,2.7-1.3,4.2-1.8c1.4-0.5,2.8-1,4.2-1.3
		c0.2,0,0.4-0.1,0.6-0.1V23.3z"/>
	<path class="st0" d="M27.3,43.8l-0.5-0.1c0,0,0.1,0,0.1,0C27,43.8,27.2,43.8,27.3,43.8z"/>
	<path class="st0" d="M19.9,40.2c0,0.1,0,0.1,0,0.2c0,0,0,0,0,0c0,0.1,0,0.2,0.1,0.3c0.1,0.4,0.4,0.7,0.7,1c0.3,0.3,0.7,0.5,1.2,0.8
		c0.4,0.2,0.9,0.4,1.3,0.5c1.3,0.4,1.6,0.5,3,0.8l0.5,0.1c-0.1,0-0.2,0-0.3-0.1c-0.1,0-0.2-0.1-0.4-0.1c-0.1,0-0.2-0.1-0.3-0.1
		c-0.4-0.1-0.7-0.3-1-0.5c-0.3-0.2-0.4-0.5-0.5-0.7c-0.1-0.3-0.1-0.6,0-0.9c0-0.1,0.1-0.2,0.1-0.4c0-0.1,0-0.1,0.1-0.2
		c0.1-0.2,0.2-0.3,0.3-0.5c-0.2-0.1-0.3-0.1-0.5-0.2c0,0-0.1,0-0.1,0C24.1,40,24,40,24,40c0,0-0.1,0-0.1,0c-0.1,0-0.2-0.1-0.2-0.1
		c-0.1,0-0.2-0.1-0.3-0.1c-0.3-0.1-0.6-0.3-0.8-0.4c-0.4-0.2-0.7-0.4-1.1-0.6c-0.4-0.2-0.7-0.4-1-0.6c-0.3,0.5-0.4,0.9-0.5,1.4
		c0,0.2,0,0.4,0,0.6C19.9,40.1,19.9,40.1,19.9,40.2z"/>
	<path class="st0" d="M34.5,31v-1.1c0,0-0.1,0-0.1,0c-1.3,0.3-2.6,0.7-3.8,1.2c-1.3,0.5-2.5,1-3.7,1.6c-0.5,0.3-1,0.6-1.5,0.8
		c-0.5,0.3-0.9,0.6-1.3,0.9c-0.4,0.3-0.8,0.6-1.2,0.9c-0.4,0.3-0.7,0.6-1,0.9c0,0,0,0,0.1,0.1c0.2,0.2,0.4,0.3,0.6,0.5c0,0,0,0,0,0
		c0.1,0.1,0.2,0.2,0.3,0.2c0.3,0.2,0.7,0.5,1,0.7c0.3,0.2,0.7,0.5,1,0.7c0.1,0,0.1,0.1,0.2,0.1c0.3,0.2,0.6,0.3,0.8,0.5
		c0.2-0.2,0.4-0.4,0.7-0.6c0.4-0.3,0.9-0.6,1.4-1c0.5-0.3,1.1-0.6,1.7-0.9c0.9-0.4,1.7-0.8,2.7-1.2c0.8-0.3,1.7-0.5,2.2-0.7V31z"/>
	<path class="st0" d="M32.6,43.3c-0.6,0.1-1.4-0.2-1.3-0.8c-0.1,0-1,0.1-1.7,0c-1.3,0-2.4-0.1-3.2-0.3
		C26.4,44.5,31.3,43.8,32.6,43.3z"/>
	<path class="st0" d="M34.5,40.1C34.5,40.1,34.5,40,34.5,40.1l0-2.4v-1.1c-0.4,0.2-1,0.3-1.5,0.5c-0.8,0.3-1.5,0.6-2.2,1
		c-0.6,0.3-1,0.6-1.5,0.8c-0.5,0.3-0.9,0.6-1.2,0.9c-0.4,0.3-0.6,0.6-0.9,0.8c-0.2,0.3-0.4,0.5-0.6,0.8c0,0,0,0,0,0
		c0.2,0.1,0.5,0.1,0.7,0.2c0,0,0,0,0,0c0.1,0,0.3,0.1,0.4,0.1c0.4,0.1,0.8,0.1,1.2,0.2c0.4,0.1,0.8,0.1,1.2,0.1
		c0.4,0,0.8,0.1,1.2,0.1l0,0c0.1-0.2,0.2-0.3,0.4-0.5c0.2-0.2,0.4-0.3,0.7-0.5c0.3-0.2,0.6-0.3,0.9-0.5
		C33.8,40.3,34.1,40.2,34.5,40.1z"/>
	<path class="st0" d="M23.8,31.9C23.8,31.9,23.8,31.9,23.8,31.9L23.8,31.9C23.8,31.9,23.8,31.9,23.8,31.9z"/>
	<path class="st0" d="M24.5,17.3c0.1,0.4,0.3,0.8,0.4,1.2c0.1,0.4,0.3,0.8,0.4,1.2c0.1,0.4,0.3,0.8,0.4,1.2c0.1,0.4,0.3,0.8,0.5,1.2
		c0,0,0,0,0,0v0c0.2-0.1,0.6-0.2,0.9-0.3c1.8-0.6,3.5-1.2,5.2-1.5c0.8-0.2,1.6-0.3,2.2-0.4V16v-1.1c-0.4,0-0.8,0.1-1.3,0.1
		c-1.4,0.2-2.9,0.5-4.4,0.9C27.4,16.3,25.9,16.7,24.5,17.3z"/>
	<path class="st0" d="M24.9,11.8c0,0.1,0,0.1,0,0.2c0.1,0.2,0.1,0.4,0.2,0.7c0.1,0.2,0.1,0.5,0.2,0.7c0,0.1,0.1,0.2,0.1,0.3
		c0,0.1,0.1,0.2,0.1,0.3c0,0.1,0.1,0.2,0.1,0.3c0,0.1,0.1,0.2,0.1,0.3c0.5-0.2,0.9-0.3,1.4-0.4c0.5-0.1,0.9-0.3,1.4-0.4
		c0.5-0.1,0.9-0.2,1.4-0.3c0.5-0.1,0.9-0.2,1.4-0.3c0-0.1-0.1-0.2-0.1-0.3c0-0.1-0.1-0.2-0.1-0.3c0-0.1-0.1-0.2-0.1-0.3
		c0-0.1-0.1-0.2-0.1-0.3c-0.1-0.2-0.2-0.5-0.2-0.7c-0.1-0.2-0.2-0.4-0.2-0.6c-0.1-0.2-0.2-0.4-0.2-0.6c-0.1-0.2-0.2-0.4-0.2-0.6
		c-0.4,0.1-0.9,0.1-1.3,0.2c-0.4,0.1-0.9,0.2-1.3,0.3c-0.4,0.1-0.9,0.2-1.3,0.3c-0.4,0.1-0.9,0.3-1.3,0.4c0.1,0.2,0.1,0.4,0.2,0.6
		C24.8,11.5,24.8,11.6,24.9,11.8C24.9,11.8,24.9,11.8,24.9,11.8z"/>
	<path class="st0" d="M28.3,45.2c-10.8,0-19.6-8.8-19.6-19.6S17.5,6,28.3,6c1.2,0,2.4,0.1,3.5,0.3c-1.7-0.5-3.5-0.7-5.4-0.7
		c-0.6,0-1.2,0-1.8,0.1l-4-5.7l-1.1,6.7C11.4,9.6,5.5,17.4,5.5,26.5c0,0.7,0,1.4,0.1,2L0,32.5l6.7,1.1c2.9,8.1,10.6,13.9,19.7,13.9
		c0.8,0,1.6,0,2.3-0.1l4,5.7l1.2-7c5.3-2.1,9.6-6.3,11.8-11.5C42.6,40.9,36,45.2,28.3,45.2z"/>
</g>
<g>
	<text transform="matrix(1 0 0 1 48.2768 32.5457)" class="st0 st1 st2">Strategic Mission Elements</text>
</g>
</svg>
