<?xml version="1.0" encoding="utf-8"?>
<!-- Generator: Adobe Illustrator 23.0.2, SVG Export Plug-In . SVG Version: 6.00 Build 0)  -->
<svg version="1.1" id="Layer_1" xmlns="http://www.w3.org/2000/svg" xmlns:xlink="http://www.w3.org/1999/xlink" x="0px" y="0px"
	 viewBox="0 0 100 116.2" style="enable-background:new 0 0 100 116.2;" xml:space="preserve">
<style type="text/css">
	.st0{fill:#1E3E68;}
</style>
<path class="st0" d="M52.8,69.4L52.8,69.4L52.8,69.4L52.8,69.4z"/>
<path class="st0" d="M61.9,98.9C38.3,98.9,19,79.6,19,56s19.3-42.9,42.9-42.9c2.6,0,5.3,0.2,7.7,0.7c-3.7-1.1-7.7-1.5-11.8-1.5
	c-1.3,0-2.6,0-3.9,0.2L45.1,0l-2.4,14.7C24.9,21,12,38.1,12,58c0,1.5,0,3.1,0.2,4.4L0,71.1l14.7,2.4c6.3,17.7,23.2,30.4,43.1,30.4
	c1.8,0,3.5,0,5-0.2l8.8,12.5l2.6-15.3c11.6-4.6,21-13.8,25.8-25.2C93.2,89.5,78.8,98.9,61.9,98.9z"/>
<g>
	<path class="st0" d="M32,52.4c1.8-2.9,4.2-5.5,7-8.3c2.4-2.2,5.5-4.7,9.1-6.9c0.5-0.3,1.1-0.7,1.9-1.2c5.8-3.3,12.7-6.2,21.5-7.9
		c1.5-0.3,2.7-0.5,3.7-0.7v-4.1c-3.6-1.3-7.5-2-11.6-2c-19.1,0-34.6,15.5-34.6,34.6c0,1.4,0.1,2.8,0.3,4.2
		C29.4,57.6,30.5,55,32,52.4z"/>
	<path class="st0" d="M68.2,71.1c-1.6,0.9-3.2,1.6-4.5,2.5c-1.3,1.1-2.7,1.8-3.8,2.7c-0.7,0.5-1.3,1.1-1.8,1.6
		c-2.7,2.5-4.3,4.9-4.5,5.4c-0.2,0.2-0.2,0.2-0.2,0.5c0,0.6-0.2,0.9-0.2,1.1c-0.2,0.9-0.2,1.6,0,2.5c0.2,0.5,0.5,1.3,1.3,1.8
		c0.3,0.1,0.5,0.3,0.7,0.4c2.7,0.7,5.5,1,8.4,1c4.1,0,8-0.7,11.6-2V68C72.6,68.9,70.6,70,68.2,71.1z"/>
	<path class="st0" d="M42,82.5c-0.2-0.4-0.2-0.6-0.2-0.9c0-0.1,0-0.1,0-0.1c0-0.1,0-0.2,0-0.4c0-0.1,0-0.2,0-0.2c0-0.3,0-0.7,0-1
		c0.9-3,1.6-4,5.5-9.4c0.9-0.9,1.6-1.6,2.7-2.5c1-0.9,2.1-1.6,3.2-2.5c1-0.9,2.1-1.6,3.4-2.5c1.3-0.6,2.7-1.3,4-2.2
		c3.2-1.6,6.5-2.9,9.9-4.3c1.5-0.6,3-1.2,4.6-1.6V40.3c-2.7,0.8-5.5,1.7-8.3,2.6c-0.8,0.4-1.9,0.6-2.4,0.8c0,0-5.9,2.4-9.4,4.3
		c-4.7,2.9-8.6,5.7-11.7,8.6c-2.9,2.9-5.1,5.7-7.2,8.7c-1.7,2.5-2.1,5.1-2.1,7.5c0.1,0.6,0.2,1.1,0.3,1.7c2.1,3.3,4.8,6.3,8,8.7
		C42.1,83,42,82.8,42,82.5z"/>
</g>
</svg>
