<?xml version="1.0" encoding="utf-8"?>
<!-- Generator: Adobe Illustrator 23.0.1, SVG Export Plug-In . SVG Version: 6.00 Build 0)  -->
<svg version="1.1" id="Layer_1" xmlns="http://www.w3.org/2000/svg" xmlns:xlink="http://www.w3.org/1999/xlink" x="0px" y="0px"
	 viewBox="0 0 68 68" style="enable-background:new 0 0 68 68;" xml:space="preserve">
<path d="M64.2,0H3.8C1.7,0,0,1.7,0,3.8h0v60.5C0,66.3,1.7,68,3.8,68h0h32.6V41.7h-8.8V31.4h8.8v-7.6c0-8.8,5.4-13.6,13.2-13.6
	c2.6,0,5.3,0.1,7.9,0.4v9.2H52c-4.3,0-5.1,2-5.1,5v6.6h10.2l-1.3,10.3h-8.9V68h17.3c2.1,0,3.8-1.7,3.8-3.8l0,0V3.8
	C68,1.7,66.3,0,64.2,0L64.2,0z"/>
</svg>
