<?xml version="1.0" encoding="utf-8"?>
<!-- Generator: Adobe Illustrator 23.0.2, SVG Export Plug-In . SVG Version: 6.00 Build 0)  -->
<svg version="1.1" id="Layer_1" xmlns="http://www.w3.org/2000/svg" xmlns:xlink="http://www.w3.org/1999/xlink" x="0px" y="0px"
	 viewBox="0 0 180 189" style="enable-background:new 0 0 180 189;" xml:space="preserve">
<style type="text/css">
	.st0{fill:#FFFFFF;stroke:#E8B637;stroke-width:2;stroke-linecap:round;stroke-linejoin:round;stroke-miterlimit:10;}
	.st1{fill:#FFFFFF;stroke:#1E3E68;stroke-width:2;stroke-linecap:round;stroke-linejoin:round;stroke-miterlimit:10;}
	.st2{fill:#FFFFFF;stroke:#1E3E68;stroke-width:2.1144;stroke-linecap:round;stroke-linejoin:round;stroke-miterlimit:10;}
	.st3{fill:#FFFFFF;stroke:#E8B637;stroke-width:2.1144;stroke-linecap:round;stroke-linejoin:round;stroke-miterlimit:10;}
</style>
<g>
	<g>
		<path class="st0" d="M90,9c0,0-9,9,0,18c6.36,6.36,24.36,11.64,18,18c-9,9-18,18-18,18s-9-9-18-18C59.27,32.27,90,9,90,9z"/>
	</g>
	<g>
		<polygon class="st1" points="81,72 72,81 108,81 99,72 		"/>
		<polygon class="st1" points="81,108 72,90 108,90 99,108 99,180 81,180 		"/>
		<line class="st1" x1="81" y1="171" x2="99" y2="171"/>
		<line class="st1" x1="90" y1="72" x2="90" y2="171"/>
		<rect x="63" y="81" class="st1" width="54" height="9"/>
	</g>
</g>
</svg>
