<svg id="Layer_1" data-name="Layer 1" xmlns="http://www.w3.org/2000/svg" viewBox="0 0 144 26.15"><defs><style>.cls-1{fill:#fff;}</style></defs><title>basis masthead white</title><path class="cls-1" d="M0,.46H9.85c2.8,0,4.17.3,5.57,1.29A6.33,6.33,0,0,1,18,7c0,2.92-1.63,4.89-4.58,5.61a6.26,6.26,0,0,1,3,1.21,6,6,0,0,1,2.39,5,6.91,6.91,0,0,1-2,5c-1.36,1.29-3.11,1.86-5.76,1.86H0ZM9.85,11.05a3.43,3.43,0,0,0,3.68-3.59c0-2-1.48-3.37-3.75-3.37H4.32v7Zm.34,10.87c2.46,0,4-1.4,4-3.64s-1.59-3.64-4-3.64H4.32v7.27Z"/><path class="cls-1" d="M75.73,18.67a4.08,4.08,0,0,0,1.44,2.42,7.57,7.57,0,0,0,4.74,1.37c3.07,0,5-1.36,5-3.56,0-1.52-1-2.5-3.14-3.07l-4.85-1.25c-2.58-.68-3.86-1.36-4.77-2.58a6.88,6.88,0,0,1-1.48-4.36C72.67,3.13,76.23.1,81.61.1a11.11,11.11,0,0,1,7,2.2,5.82,5.82,0,0,1,2.12,3.26L86.41,6.62c-.68-1.93-2.2-2.84-4.74-2.84S77.35,5,77.35,6.89c0,1.48,1.14,2.46,3.52,3.07L85.19,11c2.73.72,4.36,1.63,5.34,3.11a7.13,7.13,0,0,1,1.21,4.09c0,4.81-4,7.92-10.08,7.92a12.18,12.18,0,0,1-7.77-2.39,7.48,7.48,0,0,1-2.54-4.09Z"/><path class="cls-1" d="M105.37,25.72V.46h4.55V25.72Z"/><path class="cls-1" d="M128,18.67a4.08,4.08,0,0,0,1.44,2.42,7.57,7.57,0,0,0,4.71,1.37c3.07,0,5-1.36,5-3.56,0-1.52-1-2.5-3.14-3.07l-4.85-1.25c-2.58-.68-3.86-1.36-4.77-2.58a6.88,6.88,0,0,1-1.48-4.36c0-4.51,3.56-7.54,8.94-7.54a11.11,11.11,0,0,1,7,2.2A5.82,5.82,0,0,1,143,5.56l-4.32,1.06c-.68-1.93-2.2-2.84-4.74-2.84S129.59,5,129.59,6.89c0,1.48,1.14,2.46,3.52,3.07L137.43,11c2.73.72,4.36,1.63,5.34,3.11a7.13,7.13,0,0,1,1.23,4c0,4.81-4,7.92-10.08,7.92a12.18,12.18,0,0,1-7.77-2.39,7.48,7.48,0,0,1-2.54-4.09Z"/><path class="cls-1" d="M45.08,9.07l6.18,12.58H38.91L45.09,9.07m0-9.07L32.48,25.65h25.2L45.08,0Z"/></svg>