<svg id="Layer_1" data-name="Layer 1" xmlns="http://www.w3.org/2000/svg" viewBox="0 0 143.96 32.19"><title>basis masthead drafts</title><path d="M0,5H9.85c2.8,0,4.17.3,5.57,1.29A6.33,6.33,0,0,1,18,11.54c0,2.92-1.63,4.89-4.58,5.61a6.26,6.26,0,0,1,3,1.21,6,6,0,0,1,2.39,5,6.91,6.91,0,0,1-2,5c-1.36,1.29-3.11,1.86-5.76,1.86H0ZM9.85,15.59A3.43,3.43,0,0,0,13.53,12c0-2-1.48-3.37-3.75-3.37H4.32v7Zm.34,10.87c2.46,0,4-1.4,4-3.64s-1.59-3.64-4-3.64H4.32v7.27Z"/><path d="M75.73,23.21a4.08,4.08,0,0,0,1.44,2.42A7.57,7.57,0,0,0,81.91,27c3.07,0,5-1.36,5-3.56,0-1.52-1-2.5-3.14-3.07l-4.85-1.25c-2.58-.68-3.86-1.36-4.77-2.58a6.88,6.88,0,0,1-1.48-4.36c0-4.51,3.56-7.54,8.94-7.54a11.11,11.11,0,0,1,7,2.2,5.82,5.82,0,0,1,2.12,3.26l-4.32,1.06c-.68-1.93-2.2-2.84-4.74-2.84s-4.32,1.21-4.32,3.11c0,1.48,1.14,2.46,3.52,3.07l4.32,1.06c2.73.72,4.36,1.63,5.34,3.11a7.13,7.13,0,0,1,1.21,4.09c0,4.81-4,7.92-10.08,7.92a12.18,12.18,0,0,1-7.77-2.39,7.48,7.48,0,0,1-2.54-4.09Z"/><path d="M105.37,30.26V5h4.55V30.26Z"/><path d="M128,23.21a4.08,4.08,0,0,0,1.44,2.42A7.57,7.57,0,0,0,134.15,27c3.07,0,5-1.36,5-3.56,0-1.52-1-2.5-3.14-3.07l-4.85-1.25c-2.58-.68-3.86-1.36-4.77-2.58a6.88,6.88,0,0,1-1.48-4.36c0-4.51,3.56-7.54,8.94-7.54a11.11,11.11,0,0,1,7,2.2,5.82,5.82,0,0,1,2.12,3.26l-4.32,1.06c-.68-1.93-2.2-2.84-4.74-2.84s-4.32,1.21-4.32,3.11c0,1.48,1.14,2.46,3.52,3.07l4.32,1.06c2.73.72,4.36,1.63,5.34,3.11A7.13,7.13,0,0,1,144,22.72c0,4.81-4,7.92-10.08,7.92a12.18,12.18,0,0,1-7.77-2.39,7.48,7.48,0,0,1-2.54-4.09Z"/><path d="M45.08,13.61l6.18,12.58H38.91l6.18-12.58m0-9.07L32.48,30.19h25.2L45.08,4.54Z"/></svg>